<svg width="474" height="300" viewBox="0 0 474 300" fill="none" xmlns="http://www.w3.org/2000/svg">
<path d="M0 7.99999C0 3.58171 3.58172 0 8 0H466C470.418 0 474 3.58172 474 8V292C474 296.418 470.418 300 466 300H8.00001C3.58173 300 0 296.418 0 292V7.99999Z" fill="#18181B"/>
<path d="M0.5 7.99999C0.5 3.85786 3.85786 0.5 8 0.5H466C470.142 0.5 473.5 3.85786 473.5 8V292C473.5 296.142 470.142 299.5 466 299.5H8.00001C3.85787 299.5 0.5 296.142 0.5 292V7.99999Z" stroke="#F4F4F5" stroke-opacity="0.05"/>
<g clip-path="url(#clip0_200_34681)">
<path d="M423 131V299V131ZM333 131V299V131ZM243 131V299V131ZM153 131V299V131ZM63 131V299V131Z" fill="black"/>
<path d="M423 131V299M333 131V299M243 131V299M153 131V299M63 131V299" stroke="white" stroke-opacity="0.08" stroke-dasharray="2 2"/>
<g filter="url(#filter0_f_200_34681)">
<path d="M328.001 236C327.888 236 328.057 236.065 328.001 236C328.667 236 329.879 235.539 330.001 235C330.08 234.666 330.182 234.293 330.001 234C329.82 233.707 329.337 233.082 329.001 233L324.001 232C323.935 231.944 324.123 232 324.001 232C323.706 231.974 323.237 232.823 323.001 233C322.765 233.177 323.056 232.712 323.001 233C322.879 233.298 322.823 233.693 323.001 234C323.189 234.298 323.635 234.935 324.001 235L328.001 236ZM335.001 233C335.245 233.484 336.438 234 337.001 234C336.823 234.046 337.142 234 337.001 234L341.001 232C341.301 231.879 341.879 231.307 342.001 231C342.105 230.663 342.141 230.324 342.001 230C341.896 229.767 341.217 229.139 341.001 229C340.785 228.861 341.259 228.999 341.001 229C340.813 229 340.189 228.935 340.001 229L336.001 231C335.335 231.307 334.692 232.34 335.001 233ZM315.001 233C314.879 233 315.067 233.056 315.001 233C315.601 233 316.879 232.604 317.001 232C317.123 231.702 317.179 231.298 317.001 231C316.813 230.693 316.367 230.056 316.001 230L311.001 229C310.945 228.944 311.114 229 311.001 229C310.391 229 310.123 229.396 310.001 230C309.922 230.334 309.82 230.707 310.001 231C310.182 231.293 310.665 231.918 311.001 232L315.001 233ZM302.001 230C302.067 230.065 302.879 230 303.001 230C303.611 230 303.879 229.604 304.001 229C304.041 228.833 304.028 228.169 304.001 228C303.974 227.831 304.092 228.146 304.001 228C303.91 227.854 303.141 227.1 303.001 227C302.861 226.9 303.169 227.039 303.001 227L299.001 226C298.945 225.935 298.114 226 298.001 226C297.703 226.002 297.233 225.814 297.001 226C296.769 226.186 297.065 226.711 297.001 227C296.961 227.167 296.974 226.831 297.001 227C297.028 227.169 296.91 227.854 297.001 228C296.861 227.9 297.092 228.146 297.001 228C297.141 228.1 297.833 227.961 298.001 228L302.001 230ZM348.001 227C348.245 227.484 348.448 228 349.001 228C348.907 228.019 349.095 228 349.001 228L353.001 226C353.667 225.693 354.31 225.66 354.001 225C353.929 224.842 354.129 224.119 354.001 224C353.873 223.881 353.165 224.061 353.001 224C352.837 223.939 353.176 223.994 353.001 224C352.826 224.006 352.16 223.928 352.001 224L348.001 226C347.689 226.145 348.121 225.68 348.001 226C347.879 226.363 347.879 226.693 348.001 227ZM289.001 226C289.057 226.065 289.888 226 290.001 226C289.77 226.175 290.292 226.001 290.001 226C290.232 225.825 290.926 225.278 291.001 225C291.189 224.34 290.723 224.177 290.001 224L286.001 223C285.935 222.944 285.123 223 285.001 223C284.706 222.974 284.237 222.823 284.001 223C283.765 223.177 284.056 223.712 284.001 224C283.879 224.298 283.823 224.693 284.001 225C284.189 225.298 284.645 224.935 285.001 225L289.001 226ZM276.001 223C276.057 223.056 276.888 223 277.001 223C277.611 223 277.823 222.539 278.001 222C278.022 222.168 278.056 221.84 278.001 222C277.98 221.832 278.094 221.142 278.001 221C277.912 220.845 277.147 221.104 277.001 221C276.855 220.896 277.177 221.035 277.001 221L273.001 220C272.935 219.935 272.123 220 272.001 220C271.401 219.944 271.189 220.396 271.001 221C270.818 220.707 270.922 221.335 271.001 221C271.184 221.293 271.663 221.92 272.001 222L276.001 223ZM360.001 222C360.245 222.484 360.448 223 361.001 223C360.813 223.065 361.179 223 361.001 223L366.001 221C366.667 220.693 366.31 219.66 366.001 219C365.896 218.767 366.217 218.139 366.001 218C365.785 217.861 365.259 217.999 365.001 218C364.823 218 364.179 217.935 364.001 218L360.001 220C359.68 220.146 360.124 220.672 360.001 221C359.878 221.328 359.855 221.682 360.001 222ZM263.001 220C263.057 220.056 263.888 220 264.001 220C264.667 220 264.879 219.549 265.001 219C265.08 218.666 265.182 218.293 265.001 218C264.82 217.707 264.337 217.082 264.001 217L260.001 216C259.935 215.944 259.123 216 259.001 216C258.706 215.974 258.237 216.823 258.001 217C257.765 217.177 258.056 216.712 258.001 217C257.879 217.307 257.823 217.702 258.001 218C258.189 218.307 258.645 218.935 259.001 219L263.001 220ZM372.001 216C372.245 216.484 372.448 217 373.001 217C373.189 217 373.879 217.065 374.001 217L378.001 215C377.878 215.328 378.322 214.854 378.001 215C378.124 214.672 378.147 214.318 378.001 214C377.929 213.843 378.128 213.118 378.001 213C377.874 212.882 378.164 213.06 378.001 213C377.838 212.94 377.175 212.994 377.001 213C376.827 213.006 377.159 212.928 377.001 213L372.001 215C371.692 215.146 372.119 214.681 372.001 215C371.879 215.363 371.879 215.702 372.001 216ZM250.001 217C250.057 217.065 250.888 217 251.001 217C251.611 217 251.879 216.53 252.001 216C252.057 215.628 252.189 215.298 252.001 215C251.813 214.693 251.367 214.056 251.001 214L247.001 213C246.945 212.944 246.114 213 246.001 213C245.391 213 245.189 213.396 245.001 214C244.888 214.307 244.823 214.693 245.001 215C245.189 215.298 245.635 215.935 246.001 216L250.001 217ZM384.001 211C384.245 211.484 384.448 212 385.001 212C385.142 212 385.823 212.046 386.001 212L390.001 210C390.301 209.879 390.879 209.298 391.001 209C391.105 208.663 390.141 208.324 390.001 208C389.896 207.767 390.217 207.139 390.001 207C389.785 206.861 389.259 206.999 389.001 207C388.823 207 389.189 206.935 389.001 207L385.001 209C384.841 209.071 384.121 208.873 384.001 209C383.881 209.127 384.063 209.838 384.001 210C383.939 210.162 383.995 209.827 384.001 210C384.007 210.173 383.929 210.842 384.001 211ZM396.001 205C396.001 205.725 396.279 206 397.001 206C397.189 206 397.823 206.056 398.001 206L402.001 204C402.657 203.702 403.31 203.67 403.001 203C402.896 202.768 402.216 202.139 402.001 202C401.786 201.861 401.257 202.001 401.001 202C400.823 202 401.179 201.944 401.001 202L397.001 204C396.513 204.242 396.001 204.461 396.001 205ZM408.001 200C408.245 200.484 408.457 201 409.001 201C409.189 201 409.823 201.065 410.001 201L414.001 199C414.676 198.702 415.301 197.67 415.001 197C414.692 196.349 413.667 195.693 413.001 196L409.001 198C408.841 198.07 408.122 197.874 408.001 198C407.88 198.126 408.064 198.838 408.001 199C407.938 199.162 407.996 198.826 408.001 199C408.006 199.174 407.929 199.841 408.001 200ZM421.001 195C421.123 195.604 421.401 196 422.001 196C421.945 195.935 422.067 196 422.001 196H427.001C427.31 195.938 426.803 195.243 427.001 195C427.199 194.757 428.003 194.312 428.001 194C428.004 193.826 428.067 194.161 428.001 194C427.935 193.839 427.125 193.123 427.001 193C426.877 192.877 427.164 193.065 427.001 193C426.838 192.935 426.177 192.997 426.001 193L422.001 194C421.645 194.056 421.189 193.702 421.001 194C420.813 194.242 420.945 194.637 421.001 195ZM434.001 193C434.123 193.604 434.391 194 435.001 194L440.001 193C440.376 192.944 440.823 192.298 441.001 192C441.189 191.758 441.067 191.363 441.001 191C440.939 190.71 440.233 191.186 440.001 191C439.769 190.814 439.3 190 439.001 190L435.001 191C434.635 191.065 434.179 191.693 434.001 192C433.813 192.242 433.945 192.637 434.001 193ZM447.001 190C447.179 190.604 447.391 191 448.001 191C447.888 190.935 448.123 191 448.001 191L453.001 190C453.611 189.879 454.001 189.604 454.001 189C454.001 188.275 453.732 188 453.001 188H452.001L448.001 189C447.635 189.065 447.179 188.693 447.001 189C446.813 189.242 446.945 189.637 447.001 190ZM460.001 187C460.001 187.725 460.27 188 461.001 188C461.057 188 461.888 188.065 462.001 188H466.001C466.357 187.944 466.813 187.298 467.001 187C467.189 186.702 467.057 186.363 467.001 186C466.813 185.396 466.611 185 466.001 185H465.001L461.001 186C460.695 186.068 460.2 185.759 460.001 186C459.802 186.241 460.008 186.689 460.001 187Z" fill="#0081F1"/>
</g>
<g filter="url(#filter1_f_200_34681)">
<path d="M7 174L64 132L152 161L241 214V210L155 159C154.852 158.894 154.175 159.054 154 159L64 129C63.6268 128.883 63.3916 129 63 129C62.3901 129 61.5442 128.637 61 129L7 170V174Z" fill="#0081F1"/>
</g>
<path d="M329 236C328.888 236 329.056 236.065 329 236C329.664 236 329.878 235.54 330 235C330.079 234.666 330.18 234.293 330 234C329.82 233.707 329.335 233.082 329 233L325 232C324.935 231.944 325.122 232 325 232C324.706 231.974 324.235 232.823 324 233C323.765 233.178 323.055 232.712 323 233C322.878 233.298 322.822 233.693 323 234C323.187 234.298 323.635 234.935 324 235L329 236ZM336 233C336.243 233.485 336.439 234 337 234C337.14 234 337.822 234.047 338 234L342 232C342.299 231.879 341.878 231.308 342 231C342.104 230.663 342.14 230.324 342 230C341.895 229.767 342.216 229.139 342 229C341.784 228.861 341.257 229 341 229C340.813 229 341.187 228.935 341 229L337 231C336.336 231.308 335.691 232.339 336 233ZM316 233C315.878 233 316.065 233.056 316 233C316.599 233 316.878 232.606 317 232C317.122 231.702 317.178 231.298 317 231C316.813 230.693 316.365 230.056 316 230L312 229C311.944 228.944 312.112 229 312 229C311.392 229 310.122 229.395 310 230C309.921 230.335 309.82 230.707 310 231C310.18 231.293 310.665 231.919 311 232L316 233ZM303 230C302.878 230 303.065 230.065 303 230C303.608 230 303.878 229.606 304 229C304.04 228.833 304.027 228.17 304 228C303.973 227.831 304.09 228.147 304 228C303.91 227.854 304.14 227.101 304 227C303.86 226.9 303.168 227.04 303 227L299 226C298.944 225.935 299.112 226 299 226C298.703 226.002 298.231 225.814 298 226C297.769 226.187 297.064 226.711 297 227C296.96 227.167 296.973 226.831 297 227C297.027 227.17 297.91 227.854 298 228C297.86 227.9 298.09 228.147 298 228C297.832 227.961 298.14 228.101 298 228L303 230ZM348 227C348.243 227.485 348.448 228 349 228C348.906 228.019 349.094 228 349 228H350L354 226C354.664 225.693 354.309 225.662 354 225C353.928 224.842 354.127 224.119 354 224C353.873 223.881 354.163 224.062 354 224C353.837 223.939 353.175 223.995 353 224C352.825 224.006 353.159 223.929 353 224L349 226C348.688 226.145 348.12 225.68 348 226C347.878 226.364 347.878 226.693 348 227ZM290 226C289.888 226 290.056 226.065 290 226C290.29 226.002 290.77 226.176 291 226C291.23 225.825 290.925 225.279 291 225C291.187 224.339 290.72 224.177 290 224L286 223C285.935 222.944 286.122 223 286 223C285.706 222.974 285.235 222.823 285 223C284.765 223.178 285.055 223.712 285 224C284.878 224.298 284.822 224.693 285 225C284.644 224.935 285.187 225.298 285 225L290 226ZM277 223C276.888 223 277.056 223.056 277 223C277.608 223 277.822 222.54 278 222C278.021 222.168 278.055 221.84 278 222C277.979 221.833 278.093 221.142 278 221C277.911 220.845 278.145 221.105 278 221C277.855 220.896 277.176 221.035 277 221L273 220C272.935 219.935 273.122 219 273 219C272.401 218.944 272.187 219.395 272 220C271.921 220.336 271.818 220.707 272 221C272.182 221.294 272.663 221.921 273 222L277 223ZM360 222C360.243 222.485 360.448 223 361 223C361.178 223 361.813 223.065 362 223L366 221C366.664 220.693 367.309 219.662 367 219C366.895 218.767 366.216 218.139 366 218C365.784 217.861 365.257 218 365 218C364.822 218 365.178 217.935 365 218L361 220C360.68 220.146 360.123 220.672 360 221C359.877 221.329 359.854 221.682 360 222ZM264 220C263.888 220 264.056 220.056 264 220C264.664 220 264.878 219.55 265 219C265.079 218.666 265.18 218.293 265 218C264.82 217.707 265.335 217.082 265 217L260 216C259.935 215.944 260.122 216 260 216C259.706 215.974 259.235 216.823 259 217C258.765 217.178 259.055 216.712 259 217C258.878 217.308 258.822 217.702 259 218C259.187 218.308 259.644 218.935 260 219L264 220ZM372 216C372.243 216.485 372.448 217 373 217C373.187 217 373.878 217.065 374 217L378 215C378.32 214.854 378.877 214.329 379 214C379.123 213.672 379.146 213.319 379 213C378.928 212.843 378.127 213.118 378 213C377.873 212.882 378.163 213.061 378 213C377.837 212.94 377.173 212.994 377 213C376.827 213.006 377.158 212.929 377 213L373 215C372.692 215.147 372.118 214.681 372 215C371.878 215.364 371.878 215.702 372 216ZM251 217C250.888 217 251.056 217.065 251 217C251.608 217 252.878 216.531 253 216C253.056 215.628 252.187 215.298 252 215C251.813 214.693 252.365 214.056 252 214L247 213C246.944 212.944 247.112 213 247 213C246.392 213 246.187 213.395 246 214C245.888 214.308 245.822 214.693 246 215C246.187 215.298 246.635 215.935 247 216L251 217ZM384 211C384.243 211.485 384.448 212 385 212C385.14 212 385.822 212.047 386 212L390 210C390.299 209.879 390.878 209.298 391 209C391.104 208.663 391.14 208.324 391 208C390.895 207.767 390.216 207.139 390 207C389.784 206.861 389.257 207 389 207C388.822 207 389.187 206.935 389 207L385 209C384.841 209.072 384.12 208.874 384 209C383.88 209.127 384.062 209.838 384 210C383.938 210.163 383.994 209.827 384 210C384.006 210.174 383.928 210.842 384 211ZM396 205C396 205.727 397.28 206 398 206C397.822 206.056 398.187 206 398 206L402 204C402.655 203.702 403.309 202.671 403 202C402.896 201.768 402.214 202.139 402 202C401.786 201.862 402.255 202.001 402 202C401.822 202 401.178 201.944 401 202L397 204C396.513 204.242 396 204.46 396 205ZM408 200C408.243 200.485 409.457 201 410 201C410.187 201 409.822 200.065 410 200L414 199C414.674 198.702 415.299 197.671 415 197C414.691 196.348 413.664 195.693 413 196L409 198C408.84 198.071 409.121 197.874 409 198C408.879 198.127 408.063 198.838 408 199C407.937 199.163 407.995 198.826 408 199C408.005 199.174 407.928 199.841 408 200ZM421 195C421.122 195.606 421.401 196 422 196C421.944 195.935 422.065 196 422 196L427 195C427.308 194.938 427.802 195.243 428 195C428.198 194.757 428.002 194.313 428 194C428.003 193.826 428.066 194.162 428 194C427.934 193.839 427.124 193.124 427 193C426.876 192.877 427.162 193.066 427 193C426.838 192.935 426.175 192.998 426 193L422 194C421.644 194.056 421.187 193.702 421 194C420.813 194.242 420.944 194.637 421 195ZM434 193C434.122 193.606 434.392 194 435 194L440 193C440.374 192.944 440.822 192.298 441 192C441.187 191.758 441.065 191.364 441 191C440.938 190.71 440.232 190.187 440 190C439.768 189.814 440.298 190 440 190H439L435 191C434.635 191.066 434.178 191.693 434 192C433.813 192.242 433.944 192.637 434 193ZM447 190C447.178 190.606 447.392 191 448 191C447.888 190.935 448.122 191 448 191L453 190C453.608 189.879 454 189.606 454 189C454 188.274 453.73 188 453 188H452H448C447.635 188.066 447.178 188.693 447 189C446.813 189.242 446.944 189.637 447 190ZM460 187C460 187.727 460.27 188 461 188C461.056 188 461.888 188.066 462 188L466 187C466.356 186.944 466.813 187.298 467 187C467.187 186.702 467.056 186.364 467 186C466.813 185.395 466.608 185 466 185H465L461 186C460.694 186.069 460.198 185.759 460 186C459.802 186.242 460.007 186.689 460 187ZM7 174L64 132L152 160L240 214V210L155 159C154.852 158.894 154.174 159.054 154 159L64 129C63.6279 128.882 63.3905 129 63 129C62.3918 129 61.5427 128.637 61 129L7 170V174Z" fill="#0081F1"/>
</g>
<g filter="url(#filter2_dd_200_34681)">
<path d="M117 71C117 67.6863 119.686 65 123 65H351C354.314 65 357 67.6863 357 71V123C357 126.314 354.314 129 351 129H123C119.686 129 117 126.314 117 123V71Z" fill="#27272A"/>
<path d="M165.823 77.6691H164.394C164.339 77.3637 164.236 77.095 164.087 76.8629C163.937 76.6308 163.754 76.4338 163.537 76.2719C163.32 76.11 163.077 75.9879 162.809 75.9054C162.543 75.823 162.26 75.7817 161.961 75.7817C161.421 75.7817 160.937 75.9176 160.509 76.1895C160.085 76.4613 159.749 76.8598 159.501 77.3851C159.257 77.9104 159.135 78.5517 159.135 79.3091C159.135 80.0726 159.257 80.717 159.501 81.2423C159.749 81.7675 160.086 82.1646 160.514 82.4333C160.941 82.7021 161.422 82.8364 161.957 82.8364C162.253 82.8364 162.534 82.7967 162.8 82.7173C163.068 82.6349 163.311 82.5142 163.528 82.3554C163.745 82.1966 163.928 82.0027 164.078 81.7737C164.23 81.5415 164.336 81.2759 164.394 80.9766L165.823 80.9811C165.747 81.4423 165.598 81.8668 165.379 82.2547C165.162 82.6395 164.882 82.9723 164.54 83.2533C164.201 83.5312 163.813 83.7465 163.377 83.8992C162.94 84.0519 162.464 84.1283 161.947 84.1283C161.135 84.1283 160.411 83.9359 159.776 83.5511C159.141 83.1632 158.64 82.6089 158.274 81.8882C157.91 81.1674 157.728 80.3077 157.728 79.3091C157.728 78.3074 157.912 77.4477 158.278 76.73C158.645 76.0093 159.145 75.4565 159.781 75.0717C160.416 74.6838 161.138 74.4899 161.947 74.4899C162.445 74.4899 162.909 74.5617 163.34 74.7052C163.774 74.8457 164.163 75.0534 164.508 75.3282C164.853 75.6 165.139 75.9329 165.365 76.3269C165.591 76.7178 165.744 77.1652 165.823 77.6691ZM167.407 84V76.9636H168.731V78.0814H168.804C168.932 77.7027 169.158 77.4049 169.482 77.1881C169.809 76.9682 170.178 76.8583 170.591 76.8583C170.676 76.8583 170.777 76.8613 170.893 76.8674C171.012 76.8735 171.105 76.8812 171.172 76.8903V78.2005C171.117 78.1852 171.02 78.1684 170.879 78.1501C170.739 78.1287 170.598 78.118 170.458 78.118C170.134 78.118 169.845 78.1868 169.592 78.3242C169.342 78.4586 169.143 78.6464 168.996 78.8876C168.85 79.1259 168.777 79.3977 168.777 79.7031V84H167.407ZM172.358 84V76.9636H173.727V84H172.358ZM173.049 75.8779C172.811 75.8779 172.607 75.7985 172.436 75.6397C172.268 75.4779 172.184 75.2855 172.184 75.0625C172.184 74.8365 172.268 74.6441 172.436 74.4853C172.607 74.3235 172.811 74.2425 173.049 74.2425C173.288 74.2425 173.491 74.3235 173.659 74.4853C173.83 74.6441 173.915 74.8365 173.915 75.0625C173.915 75.2855 173.83 75.4779 173.659 75.6397C173.491 75.7985 173.288 75.8779 173.049 75.8779ZM178.855 76.9636V78.0631H175.011V76.9636H178.855ZM176.042 75.2778H177.412V81.934C177.412 82.1997 177.451 82.3997 177.531 82.5341C177.61 82.6654 177.712 82.7555 177.838 82.8044C177.966 82.8502 178.105 82.8731 178.255 82.8731C178.364 82.8731 178.461 82.8654 178.543 82.8502C178.626 82.8349 178.69 82.8227 178.736 82.8135L178.983 83.945C178.904 83.9756 178.791 84.0061 178.644 84.0366C178.497 84.0702 178.314 84.0886 178.094 84.0916C177.734 84.0977 177.398 84.0336 177.086 83.8992C176.775 83.7648 176.523 83.5572 176.331 83.2762C176.138 82.9952 176.042 82.6425 176.042 82.218V75.2778ZM180.37 84V76.9636H181.74V84H180.37ZM181.062 75.8779C180.823 75.8779 180.619 75.7985 180.448 75.6397C180.28 75.4779 180.196 75.2855 180.196 75.0625C180.196 74.8365 180.28 74.6441 180.448 74.4853C180.619 74.3235 180.823 74.2425 181.062 74.2425C181.3 74.2425 181.503 74.3235 181.671 74.4853C181.842 74.6441 181.927 74.8365 181.927 75.0625C181.927 75.2855 181.842 75.4779 181.671 75.6397C181.503 75.7985 181.3 75.8779 181.062 75.8779ZM186.546 84.142C185.865 84.142 185.279 83.9878 184.787 83.6793C184.298 83.3678 183.923 82.9387 183.66 82.3921C183.397 81.8454 183.266 81.2194 183.266 80.5139C183.266 79.7993 183.4 79.1686 183.669 78.6219C183.938 78.0722 184.317 77.6431 184.805 77.3347C185.294 77.0262 185.87 76.872 186.532 76.872C187.067 76.872 187.543 76.9713 187.962 77.1698C188.38 77.3652 188.717 77.6401 188.974 77.9944C189.234 78.3486 189.388 78.7624 189.437 79.2358H188.104C188.03 78.906 187.862 78.6219 187.6 78.3837C187.34 78.1455 186.992 78.0264 186.555 78.0264C186.174 78.0264 185.839 78.1272 185.552 78.3288C185.268 78.5273 185.047 78.8113 184.888 79.1808C184.729 79.5473 184.65 79.981 184.65 80.4818C184.65 80.9949 184.727 81.4377 184.883 81.8103C185.039 82.1829 185.259 82.4715 185.543 82.6761C185.83 82.8807 186.167 82.983 186.555 82.983C186.815 82.983 187.05 82.9357 187.261 82.841C187.474 82.7433 187.653 82.6043 187.797 82.4241C187.943 82.244 188.046 82.0271 188.104 81.7737H189.437C189.388 82.2287 189.24 82.6349 188.992 82.9922C188.745 83.3495 188.414 83.6305 187.998 83.8351C187.586 84.0397 187.102 84.142 186.546 84.142ZM192.949 84.1558C192.503 84.1558 192.1 84.0733 191.74 83.9084C191.379 83.7404 191.094 83.4976 190.883 83.18C190.675 82.8624 190.572 82.473 190.572 82.0119C190.572 81.6148 190.648 81.2881 190.801 81.0315C190.953 80.775 191.159 80.5719 191.419 80.4223C191.679 80.2726 191.969 80.1596 192.289 80.0833C192.61 80.0069 192.937 79.9489 193.27 79.9092C193.691 79.8603 194.033 79.8206 194.296 79.7901C194.559 79.7565 194.749 79.7031 194.869 79.6298C194.988 79.5565 195.047 79.4374 195.047 79.2724V79.2404C195.047 78.8403 194.934 78.5303 194.708 78.3104C194.485 78.0906 194.152 77.9806 193.71 77.9806C193.248 77.9806 192.885 78.0829 192.619 78.2875C192.357 78.4891 192.175 78.7136 192.074 78.9609L190.787 78.6678C190.94 78.2402 191.163 77.8951 191.456 77.6325C191.752 77.3668 192.092 77.1744 192.477 77.0553C192.862 76.9331 193.267 76.872 193.691 76.872C193.972 76.872 194.27 76.9056 194.585 76.9728C194.902 77.0369 195.198 77.156 195.473 77.3301C195.751 77.5042 195.979 77.7531 196.156 78.0768C196.333 78.3975 196.422 78.8143 196.422 79.3274V84H195.084V83.038H195.029C194.94 83.2151 194.807 83.3892 194.63 83.5602C194.453 83.7312 194.226 83.8733 193.948 83.9863C193.67 84.0993 193.337 84.1558 192.949 84.1558ZM193.247 83.0563C193.626 83.0563 193.949 82.9815 194.218 82.8319C194.49 82.6822 194.696 82.4868 194.836 82.2455C194.98 82.0012 195.052 81.7401 195.052 81.4621V80.5551C195.003 80.604 194.908 80.6498 194.768 80.6925C194.63 80.7322 194.473 80.7674 194.296 80.7979C194.119 80.8254 193.946 80.8513 193.778 80.8758C193.61 80.8972 193.47 80.9155 193.357 80.9308C193.091 80.9643 192.848 81.0208 192.628 81.1002C192.412 81.1797 192.238 81.2942 192.106 81.4438C191.978 81.5904 191.914 81.7859 191.914 82.0302C191.914 82.3692 192.039 82.6257 192.289 82.7998C192.54 82.9708 192.859 83.0563 193.247 83.0563ZM199.616 74.6182V84H198.246V74.6182H199.616ZM204.982 84V74.6182H206.352V78.1043H206.434C206.514 77.9577 206.628 77.7882 206.778 77.5958C206.928 77.4034 207.135 77.2354 207.401 77.0919C207.667 76.9453 208.018 76.872 208.455 76.872C209.023 76.872 209.53 77.0156 209.975 77.3026C210.421 77.5897 210.771 78.0035 211.024 78.5441C211.281 79.0846 211.409 79.7351 211.409 80.4956C211.409 81.256 211.283 81.908 211.029 82.4516C210.776 82.9922 210.427 83.4091 209.985 83.7022C209.542 83.9924 209.036 84.1374 208.468 84.1374C208.041 84.1374 207.691 84.0657 207.419 83.9221C207.151 83.7786 206.94 83.6106 206.787 83.4182C206.634 83.2258 206.517 83.0548 206.434 82.9051H206.32V84H204.982ZM206.324 80.4818C206.324 80.9766 206.396 81.4102 206.54 81.7828C206.683 82.1554 206.891 82.4471 207.163 82.6578C207.435 82.8654 207.767 82.9693 208.161 82.9693C208.571 82.9693 208.913 82.8609 209.188 82.644C209.462 82.4241 209.67 82.1264 209.811 81.7507C209.954 81.3751 210.026 80.9521 210.026 80.4818C210.026 80.0176 209.956 79.6007 209.815 79.2312C209.678 78.8617 209.47 78.57 209.192 78.3563C208.917 78.1425 208.574 78.0356 208.161 78.0356C207.764 78.0356 207.428 78.1379 207.154 78.3425C206.882 78.5471 206.676 78.8327 206.535 79.1991C206.395 79.5656 206.324 79.9932 206.324 80.4818ZM214.995 84.1558C214.549 84.1558 214.146 84.0733 213.786 83.9084C213.425 83.7404 213.14 83.4976 212.929 83.18C212.721 82.8624 212.618 82.473 212.618 82.0119C212.618 81.6148 212.694 81.2881 212.847 81.0315C212.999 80.775 213.205 80.5719 213.465 80.4223C213.725 80.2726 214.015 80.1596 214.335 80.0833C214.656 80.0069 214.983 79.9489 215.316 79.9092C215.737 79.8603 216.079 79.8206 216.342 79.7901C216.604 79.7565 216.795 79.7031 216.914 79.6298C217.034 79.5565 217.093 79.4374 217.093 79.2724V79.2404C217.093 78.8403 216.98 78.5303 216.754 78.3104C216.531 78.0906 216.198 77.9806 215.755 77.9806C215.294 77.9806 214.931 78.0829 214.665 78.2875C214.403 78.4891 214.221 78.7136 214.12 78.9609L212.833 78.6678C212.986 78.2402 213.208 77.8951 213.502 77.6325C213.798 77.3668 214.138 77.1744 214.523 77.0553C214.908 76.9331 215.313 76.872 215.737 76.872C216.018 76.872 216.316 76.9056 216.63 76.9728C216.948 77.0369 217.244 77.156 217.519 77.3301C217.797 77.5042 218.025 77.7531 218.202 78.0768C218.379 78.3975 218.467 78.8143 218.467 79.3274V84H217.13V83.038H217.075C216.986 83.2151 216.853 83.3892 216.676 83.5602C216.499 83.7312 216.272 83.8733 215.994 83.9863C215.716 84.0993 215.383 84.1558 214.995 84.1558ZM215.293 83.0563C215.671 83.0563 215.995 82.9815 216.264 82.8319C216.536 82.6822 216.742 82.4868 216.882 82.2455C217.026 82.0012 217.098 81.7401 217.098 81.4621V80.5551C217.049 80.604 216.954 80.6498 216.814 80.6925C216.676 80.7322 216.519 80.7674 216.342 80.7979C216.165 80.8254 215.992 80.8513 215.824 80.8758C215.656 80.8972 215.516 80.9155 215.403 80.9308C215.137 80.9643 214.894 81.0208 214.674 81.1002C214.458 81.1797 214.283 81.2942 214.152 81.4438C214.024 81.5904 213.96 81.7859 213.96 82.0302C213.96 82.3692 214.085 82.6257 214.335 82.7998C214.586 82.9708 214.905 83.0563 215.293 83.0563ZM221.661 74.6182V84H220.292V74.6182H221.661ZM225.552 84.1558C225.106 84.1558 224.703 84.0733 224.342 83.9084C223.982 83.7404 223.697 83.4976 223.486 83.18C223.278 82.8624 223.174 82.473 223.174 82.0119C223.174 81.6148 223.251 81.2881 223.403 81.0315C223.556 80.775 223.762 80.5719 224.022 80.4223C224.281 80.2726 224.572 80.1596 224.892 80.0833C225.213 80.0069 225.54 79.9489 225.873 79.9092C226.294 79.8603 226.636 79.8206 226.899 79.7901C227.161 79.7565 227.352 79.7031 227.471 79.6298C227.59 79.5565 227.65 79.4374 227.65 79.2724V79.2404C227.65 78.8403 227.537 78.5303 227.311 78.3104C227.088 78.0906 226.755 77.9806 226.312 77.9806C225.851 77.9806 225.488 78.0829 225.222 78.2875C224.959 78.4891 224.778 78.7136 224.677 78.9609L223.39 78.6678C223.542 78.2402 223.765 77.8951 224.058 77.6325C224.355 77.3668 224.695 77.1744 225.08 77.0553C225.465 76.9331 225.869 76.872 226.294 76.872C226.575 76.872 226.873 76.9056 227.187 76.9728C227.505 77.0369 227.801 77.156 228.076 77.3301C228.354 77.5042 228.581 77.7531 228.759 78.0768C228.936 78.3975 229.024 78.8143 229.024 79.3274V84H227.687V83.038H227.632C227.543 83.2151 227.41 83.3892 227.233 83.5602C227.056 83.7312 226.828 83.8733 226.551 83.9863C226.273 84.0993 225.94 84.1558 225.552 84.1558ZM225.85 83.0563C226.228 83.0563 226.552 82.9815 226.821 82.8319C227.093 82.6822 227.299 82.4868 227.439 82.2455C227.583 82.0012 227.655 81.7401 227.655 81.4621V80.5551C227.606 80.604 227.511 80.6498 227.371 80.6925C227.233 80.7322 227.076 80.7674 226.899 80.7979C226.722 80.8254 226.549 80.8513 226.381 80.8758C226.213 80.8972 226.073 80.9155 225.96 80.9308C225.694 80.9643 225.451 81.0208 225.231 81.1002C225.014 81.1797 224.84 81.2942 224.709 81.4438C224.581 81.5904 224.517 81.7859 224.517 82.0302C224.517 82.3692 224.642 82.6257 224.892 82.7998C225.143 82.9708 225.462 83.0563 225.85 83.0563ZM232.218 79.8222V84H230.849V76.9636H232.163V78.1089H232.25C232.412 77.7363 232.666 77.437 233.011 77.211C233.359 76.985 233.797 76.872 234.326 76.872C234.805 76.872 235.225 76.9728 235.585 77.1744C235.946 77.3729 236.225 77.6691 236.424 78.0631C236.622 78.457 236.721 78.9441 236.721 79.5244V84H235.352V79.6893C235.352 79.1793 235.219 78.7808 234.953 78.4937C234.687 78.2036 234.323 78.0585 233.858 78.0585C233.541 78.0585 233.258 78.1272 233.011 78.2646C232.767 78.4021 232.573 78.6036 232.429 78.8693C232.289 79.132 232.218 79.4496 232.218 79.8222ZM241.522 84.142C240.841 84.142 240.255 83.9878 239.763 83.6793C239.275 83.3678 238.899 82.9387 238.636 82.3921C238.374 81.8454 238.242 81.2194 238.242 80.5139C238.242 79.7993 238.377 79.1686 238.645 78.6219C238.914 78.0722 239.293 77.6431 239.781 77.3347C240.27 77.0262 240.846 76.872 241.509 76.872C242.043 76.872 242.519 76.9713 242.938 77.1698C243.356 77.3652 243.694 77.6401 243.95 77.9944C244.21 78.3486 244.364 78.7624 244.413 79.2358H243.08C243.006 78.906 242.839 78.6219 242.576 78.3837C242.316 78.1455 241.968 78.0264 241.531 78.0264C241.15 78.0264 240.815 78.1272 240.528 78.3288C240.244 78.5273 240.023 78.8113 239.864 79.1808C239.705 79.5473 239.626 79.981 239.626 80.4818C239.626 80.9949 239.704 81.4377 239.859 81.8103C240.015 82.1829 240.235 82.4715 240.519 82.6761C240.806 82.8807 241.144 82.983 241.531 82.983C241.791 82.983 242.026 82.9357 242.237 82.841C242.451 82.7433 242.629 82.6043 242.773 82.4241C242.919 82.244 243.022 82.0271 243.08 81.7737H244.413C244.364 82.2287 244.216 82.6349 243.968 82.9922C243.721 83.3495 243.39 83.6305 242.974 83.8351C242.562 84.0397 242.078 84.142 241.522 84.142ZM248.91 84.142C248.217 84.142 247.62 83.9939 247.119 83.6977C246.621 83.3984 246.236 82.9784 245.965 82.4379C245.696 81.8943 245.562 81.2575 245.562 80.5276C245.562 79.8069 245.696 79.1717 245.965 78.6219C246.236 78.0722 246.615 77.6431 247.101 77.3347C247.589 77.0262 248.16 76.872 248.814 76.872C249.211 76.872 249.596 76.9377 249.968 77.069C250.341 77.2003 250.675 77.4065 250.972 77.6874C251.268 77.9684 251.502 78.3333 251.673 78.7823C251.844 79.2282 251.929 79.7702 251.929 80.4085V80.8941H246.336V79.868H250.587C250.587 79.5076 250.514 79.1885 250.367 78.9105C250.22 78.6296 250.014 78.4082 249.749 78.2463C249.486 78.0844 249.177 78.0035 248.823 78.0035C248.438 78.0035 248.102 78.0982 247.815 78.2875C247.531 78.4738 247.311 78.7181 247.156 79.0205C247.003 79.3198 246.927 79.645 246.927 79.9962V80.7979C246.927 81.2682 247.009 81.6683 247.174 81.9981C247.342 82.3279 247.576 82.5799 247.875 82.754C248.174 82.925 248.524 83.0105 248.924 83.0105C249.184 83.0105 249.42 82.9739 249.634 82.9006C249.848 82.8242 250.033 82.7112 250.188 82.5616C250.344 82.4119 250.463 82.2272 250.546 82.0073L251.842 82.2409C251.738 82.6227 251.552 82.9571 251.283 83.2441C251.017 83.5282 250.683 83.7496 250.28 83.9084C249.88 84.0641 249.423 84.142 248.91 84.142ZM258.91 84.1558C258.465 84.1558 258.061 84.0733 257.701 83.9084C257.341 83.7404 257.055 83.4976 256.844 83.18C256.637 82.8624 256.533 82.473 256.533 82.0119C256.533 81.6148 256.609 81.2881 256.762 81.0315C256.915 80.775 257.121 80.5719 257.38 80.4223C257.64 80.2726 257.93 80.1596 258.251 80.0833C258.571 80.0069 258.898 79.9489 259.231 79.9092C259.653 79.8603 259.995 79.8206 260.257 79.7901C260.52 79.7565 260.711 79.7031 260.83 79.6298C260.949 79.5565 261.009 79.4374 261.009 79.2724V79.2404C261.009 78.8403 260.896 78.5303 260.67 78.3104C260.447 78.0906 260.114 77.9806 259.671 77.9806C259.21 77.9806 258.846 78.0829 258.581 78.2875C258.318 78.4891 258.136 78.7136 258.035 78.9609L256.748 78.6678C256.901 78.2402 257.124 77.8951 257.417 77.6325C257.713 77.3668 258.054 77.1744 258.439 77.0553C258.823 76.9331 259.228 76.872 259.653 76.872C259.934 76.872 260.231 76.9056 260.546 76.9728C260.863 77.0369 261.16 77.156 261.435 77.3301C261.712 77.5042 261.94 77.7531 262.117 78.0768C262.294 78.3975 262.383 78.8143 262.383 79.3274V84H261.045V83.038H260.99C260.902 83.2151 260.769 83.3892 260.592 83.5602C260.415 83.7312 260.187 83.8733 259.909 83.9863C259.631 84.0993 259.298 84.1558 258.91 84.1558ZM259.208 83.0563C259.587 83.0563 259.911 82.9815 260.179 82.8319C260.451 82.6822 260.657 82.4868 260.798 82.2455C260.941 82.0012 261.013 81.7401 261.013 81.4621V80.5551C260.964 80.604 260.87 80.6498 260.729 80.6925C260.592 80.7322 260.434 80.7674 260.257 80.7979C260.08 80.8254 259.908 80.8513 259.74 80.8758C259.572 80.8972 259.431 80.9155 259.318 80.9308C259.052 80.9643 258.81 81.0208 258.59 81.1002C258.373 81.1797 258.199 81.2942 258.068 81.4438C257.939 81.5904 257.875 81.7859 257.875 82.0302C257.875 82.3692 258 82.6257 258.251 82.7998C258.501 82.9708 258.82 83.0563 259.208 83.0563ZM265.577 74.6182V84H264.207V74.6182H265.577ZM270.452 84.142C269.759 84.142 269.162 83.9939 268.661 83.6977C268.163 83.3984 267.778 82.9784 267.507 82.4379C267.238 81.8943 267.104 81.2575 267.104 80.5276C267.104 79.8069 267.238 79.1717 267.507 78.6219C267.778 78.0722 268.157 77.6431 268.643 77.3347C269.131 77.0262 269.702 76.872 270.356 76.872C270.753 76.872 271.138 76.9377 271.51 77.069C271.883 77.2003 272.217 77.4065 272.514 77.6874C272.81 77.9684 273.043 78.3333 273.215 78.7823C273.386 79.2282 273.471 79.7702 273.471 80.4085V80.8941H267.878V79.868H272.129C272.129 79.5076 272.056 79.1885 271.909 78.9105C271.762 78.6296 271.556 78.4082 271.291 78.2463C271.028 78.0844 270.719 78.0035 270.365 78.0035C269.98 78.0035 269.644 78.0982 269.357 78.2875C269.073 78.4738 268.853 78.7181 268.698 79.0205C268.545 79.3198 268.469 79.645 268.469 79.9962V80.7979C268.469 81.2682 268.551 81.6683 268.716 81.9981C268.884 82.3279 269.118 82.5799 269.417 82.754C269.716 82.925 270.066 83.0105 270.466 83.0105C270.726 83.0105 270.962 82.9739 271.176 82.9006C271.39 82.8242 271.575 82.7112 271.73 82.5616C271.886 82.4119 272.005 82.2272 272.088 82.0073L273.384 82.2409C273.28 82.6227 273.094 82.9571 272.825 83.2441C272.559 83.5282 272.225 83.7496 271.822 83.9084C271.422 84.0641 270.965 84.142 270.452 84.142ZM274.991 84V76.9636H276.315V78.0814H276.388C276.516 77.7027 276.742 77.4049 277.066 77.1881C277.393 76.9682 277.762 76.8583 278.175 76.8583C278.26 76.8583 278.361 76.8613 278.477 76.8674C278.596 76.8735 278.689 76.8812 278.756 76.8903V78.2005C278.701 78.1852 278.604 78.1684 278.463 78.1501C278.323 78.1287 278.182 78.118 278.042 78.118C277.718 78.118 277.429 78.1868 277.176 78.3242C276.925 78.4586 276.727 78.6464 276.58 78.8876C276.434 79.1259 276.36 79.3977 276.36 79.7031V84H274.991ZM283.642 76.9636V78.0631H279.799V76.9636H283.642ZM280.829 75.2778H282.199V81.934C282.199 82.1997 282.239 82.3997 282.318 82.5341C282.397 82.6654 282.5 82.7555 282.625 82.8044C282.753 82.8502 282.892 82.8731 283.042 82.8731C283.152 82.8731 283.248 82.8654 283.33 82.8502C283.413 82.8349 283.477 82.8227 283.523 82.8135L283.77 83.945C283.691 83.9756 283.578 84.0061 283.431 84.0366C283.285 84.0702 283.101 84.0886 282.882 84.0916C282.521 84.0977 282.185 84.0336 281.874 83.8992C281.562 83.7648 281.31 83.5572 281.118 83.2762C280.925 82.9952 280.829 82.6425 280.829 82.218V75.2778Z" fill="#D4D4D8"/>
<path d="M157.335 94.4727H158.656L161.298 98.92H161.41L164.052 94.4727H165.374L161.931 100.074V104H160.777V100.074L157.335 94.4727ZM168.609 104.149C167.964 104.149 167.398 103.995 166.911 103.688C166.427 103.381 166.049 102.952 165.776 102.4C165.506 101.848 165.371 101.203 165.371 100.464C165.371 99.7202 165.506 99.0704 165.776 98.5153C166.049 97.9602 166.427 97.5291 166.911 97.2221C167.398 96.915 167.964 96.7615 168.609 96.7615C169.254 96.7615 169.819 96.915 170.302 97.2221C170.789 97.5291 171.168 97.9602 171.437 98.5153C171.71 99.0704 171.847 99.7202 171.847 100.464C171.847 101.203 171.71 101.848 171.437 102.4C171.168 102.952 170.789 103.381 170.302 103.688C169.819 103.995 169.254 104.149 168.609 104.149ZM168.609 103.163C169.099 103.163 169.502 103.037 169.819 102.786C170.135 102.535 170.369 102.204 170.521 101.795C170.673 101.386 170.749 100.942 170.749 100.464C170.749 99.9869 170.673 99.5418 170.521 99.1294C170.369 98.7169 170.135 98.3835 169.819 98.1292C169.502 97.8749 169.099 97.7477 168.609 97.7477C168.119 97.7477 167.716 97.8749 167.4 98.1292C167.083 98.3835 166.849 98.7169 166.697 99.1294C166.545 99.5418 166.469 99.9869 166.469 100.464C166.469 100.942 166.545 101.386 166.697 101.795C166.849 102.204 167.083 102.535 167.4 102.786C167.716 103.037 168.119 103.163 168.609 103.163ZM178.026 101.079V96.8545H179.124V104H178.026V102.79H177.951C177.784 103.153 177.523 103.462 177.17 103.716C176.816 103.967 176.37 104.093 175.83 104.093C175.383 104.093 174.987 103.995 174.639 103.8C174.292 103.601 174.019 103.304 173.82 102.907C173.622 102.507 173.523 102.003 173.523 101.395V96.8545H174.621V101.32C174.621 101.841 174.766 102.257 175.058 102.567C175.352 102.877 175.728 103.032 176.184 103.032C176.457 103.032 176.734 102.963 177.016 102.823C177.302 102.683 177.54 102.469 177.733 102.181C177.928 101.893 178.026 101.525 178.026 101.079ZM186.438 104L184.261 96.8545H185.414L186.959 102.325H187.033L188.559 96.8545H189.731L191.239 102.307H191.313L192.858 96.8545H194.011L191.834 104H190.755L189.192 98.5107H189.08L187.517 104H186.438ZM195.463 104V96.8545H196.561V104H195.463ZM196.021 95.6636C195.807 95.6636 195.622 95.5908 195.467 95.445C195.315 95.2992 195.239 95.124 195.239 94.9193C195.239 94.7146 195.315 94.5394 195.467 94.3936C195.622 94.2479 195.807 94.175 196.021 94.175C196.235 94.175 196.418 94.2479 196.57 94.3936C196.725 94.5394 196.802 94.7146 196.802 94.9193C196.802 95.124 196.725 95.2992 196.57 95.445C196.418 95.5908 196.235 95.6636 196.021 95.6636ZM199.669 94.4727V104H198.571V94.4727H199.669ZM202.778 94.4727V104H201.68V94.4727H202.778ZM209.571 99.7016V104H208.473V94.4727H209.571V97.971H209.664C209.831 97.602 210.083 97.3089 210.418 97.0918C210.756 96.8716 211.205 96.7615 211.767 96.7615C212.254 96.7615 212.68 96.8592 213.046 97.0546C213.412 97.2469 213.696 97.543 213.897 97.9431C214.102 98.3401 214.204 98.8456 214.204 99.4597V104H213.106V99.5341C213.106 98.9665 212.959 98.5277 212.665 98.2176C212.373 97.9043 211.968 97.7477 211.45 97.7477C211.091 97.7477 210.768 97.8237 210.483 97.9757C210.201 98.1276 209.977 98.3494 209.813 98.6409C209.652 98.9324 209.571 99.286 209.571 99.7016ZM218.316 104.167C217.863 104.167 217.452 104.082 217.083 103.912C216.714 103.738 216.421 103.488 216.204 103.163C215.986 102.834 215.878 102.437 215.878 101.972C215.878 101.562 215.959 101.231 216.12 100.976C216.281 100.719 216.497 100.517 216.766 100.371C217.036 100.226 217.334 100.117 217.66 100.046C217.988 99.9714 218.319 99.9125 218.65 99.869C219.085 99.8132 219.437 99.7713 219.706 99.7434C219.979 99.7124 220.178 99.6612 220.302 99.5899C220.429 99.5186 220.493 99.3945 220.493 99.2178V99.1805C220.493 98.7215 220.367 98.3649 220.116 98.1106C219.868 97.8563 219.491 97.7291 218.985 97.7291C218.461 97.7291 218.05 97.8439 217.753 98.0734C217.455 98.3029 217.246 98.5479 217.125 98.8084L216.083 98.4362C216.269 98.002 216.517 97.664 216.827 97.4221C217.14 97.1771 217.481 97.0065 217.85 96.9104C218.222 96.8111 218.588 96.7615 218.948 96.7615C219.178 96.7615 219.441 96.7894 219.739 96.8452C220.04 96.898 220.33 97.0081 220.609 97.1755C220.891 97.343 221.125 97.5958 221.311 97.9338C221.497 98.2719 221.591 98.7246 221.591 99.2922V104H220.493V103.032H220.437C220.362 103.187 220.238 103.353 220.065 103.53C219.891 103.707 219.66 103.857 219.372 103.981C219.083 104.105 218.731 104.167 218.316 104.167ZM218.483 103.181C218.917 103.181 219.283 103.096 219.581 102.925C219.882 102.755 220.108 102.535 220.26 102.265C220.415 101.995 220.493 101.711 220.493 101.413V100.409C220.446 100.464 220.344 100.516 220.186 100.562C220.031 100.606 219.851 100.644 219.646 100.678C219.444 100.709 219.247 100.737 219.055 100.762C218.866 100.784 218.713 100.803 218.595 100.818C218.309 100.855 218.043 100.916 217.795 100.999C217.55 101.08 217.351 101.203 217.199 101.367C217.05 101.528 216.976 101.748 216.976 102.028C216.976 102.409 217.117 102.697 217.399 102.893C217.684 103.085 218.046 103.181 218.483 103.181ZM229.181 96.8545L226.539 104H225.423L222.78 96.8545H223.971L225.944 102.549H226.018L227.991 96.8545H229.181ZM233.371 104.149C232.682 104.149 232.088 103.997 231.589 103.693C231.093 103.386 230.71 102.958 230.44 102.409C230.173 101.857 230.04 101.215 230.04 100.483C230.04 99.7512 230.173 99.1061 230.44 98.5479C230.71 97.9865 231.085 97.5492 231.566 97.236C232.049 96.9197 232.614 96.7615 233.259 96.7615C233.631 96.7615 233.999 96.8235 234.361 96.9476C234.724 97.0716 235.055 97.2732 235.352 97.5523C235.65 97.8284 235.887 98.1943 236.064 98.6502C236.241 99.1061 236.329 99.6674 236.329 100.334V100.799H230.821V99.8504H235.213C235.213 99.4473 235.132 99.0875 234.971 98.7712C234.813 98.4548 234.586 98.2052 234.292 98.0222C234 97.8392 233.656 97.7477 233.259 97.7477C232.822 97.7477 232.443 97.8563 232.124 98.0734C231.807 98.2874 231.564 98.5665 231.393 98.9107C231.223 99.255 231.138 99.624 231.138 100.018V100.651C231.138 101.19 231.231 101.648 231.417 102.023C231.606 102.395 231.868 102.679 232.203 102.874C232.538 103.067 232.927 103.163 233.371 103.163C233.659 103.163 233.919 103.122 234.152 103.042C234.388 102.958 234.591 102.834 234.761 102.67C234.932 102.502 235.064 102.294 235.157 102.046L236.218 102.344C236.106 102.704 235.918 103.02 235.655 103.293C235.391 103.563 235.065 103.774 234.678 103.926C234.29 104.074 233.854 104.149 233.371 104.149ZM242.782 94.4727V104H241.684V94.4727H242.782ZM247.788 104.149C247.1 104.149 246.506 103.997 246.006 103.693C245.51 103.386 245.127 102.958 244.857 102.409C244.591 101.857 244.457 101.215 244.457 100.483C244.457 99.7512 244.591 99.1061 244.857 98.5479C245.127 97.9865 245.503 97.5492 245.983 97.236C246.467 96.9197 247.031 96.7615 247.677 96.7615C248.049 96.7615 248.416 96.8235 248.779 96.9476C249.142 97.0716 249.472 97.2732 249.77 97.5523C250.068 97.8284 250.305 98.1943 250.482 98.6502C250.658 99.1061 250.747 99.6674 250.747 100.334V100.799H245.239V99.8504H249.63C249.63 99.4473 249.55 99.0875 249.388 98.7712C249.23 98.4548 249.004 98.2052 248.709 98.0222C248.418 97.8392 248.074 97.7477 247.677 97.7477C247.239 97.7477 246.861 97.8563 246.541 98.0734C246.225 98.2874 245.982 98.5665 245.811 98.9107C245.641 99.255 245.555 99.624 245.555 100.018V100.651C245.555 101.19 245.648 101.648 245.834 102.023C246.024 102.395 246.286 102.679 246.621 102.874C246.956 103.067 247.345 103.163 247.788 103.163C248.077 103.163 248.337 103.122 248.57 103.042C248.805 102.958 249.009 102.834 249.179 102.67C249.35 102.502 249.482 102.294 249.575 102.046L250.635 102.344C250.524 102.704 250.336 103.02 250.072 103.293C249.809 103.563 249.483 103.774 249.095 103.926C248.708 104.074 248.272 104.149 247.788 104.149ZM257.478 98.4548L256.492 98.7339C256.43 98.5696 256.339 98.4099 256.218 98.2548C256.1 98.0966 255.938 97.9664 255.734 97.864C255.529 97.7617 255.267 97.7105 254.948 97.7105C254.51 97.7105 254.146 97.8113 253.854 98.0129C253.566 98.2114 253.422 98.4641 253.422 98.7712C253.422 99.0441 253.521 99.2596 253.719 99.4178C253.918 99.576 254.228 99.7078 254.65 99.8132L255.711 100.074C256.349 100.229 256.825 100.466 257.139 100.785C257.452 101.102 257.609 101.51 257.609 102.009C257.609 102.418 257.491 102.784 257.255 103.107C257.022 103.429 256.697 103.684 256.278 103.87C255.859 104.056 255.373 104.149 254.817 104.149C254.089 104.149 253.485 103.991 253.008 103.674C252.53 103.358 252.228 102.896 252.101 102.288L253.143 102.028C253.242 102.412 253.43 102.701 253.706 102.893C253.985 103.085 254.349 103.181 254.799 103.181C255.31 103.181 255.717 103.073 256.018 102.856C256.322 102.635 256.473 102.372 256.473 102.065C256.473 101.817 256.387 101.609 256.213 101.441C256.039 101.271 255.773 101.144 255.413 101.06L254.222 100.781C253.568 100.626 253.087 100.385 252.78 100.06C252.476 99.731 252.324 99.3201 252.324 98.827C252.324 98.4238 252.437 98.0672 252.663 97.757C252.893 97.4469 253.205 97.2034 253.599 97.0267C253.996 96.8499 254.445 96.7615 254.948 96.7615C255.655 96.7615 256.21 96.9166 256.613 97.2267C257.019 97.5368 257.308 97.9462 257.478 98.4548ZM264.323 98.4548L263.336 98.7339C263.274 98.5696 263.183 98.4099 263.062 98.2548C262.944 98.0966 262.783 97.9664 262.578 97.864C262.373 97.7617 262.111 97.7105 261.792 97.7105C261.355 97.7105 260.99 97.8113 260.699 98.0129C260.41 98.2114 260.266 98.4641 260.266 98.7712C260.266 99.0441 260.365 99.2596 260.564 99.4178C260.762 99.576 261.072 99.7078 261.494 99.8132L262.555 100.074C263.194 100.229 263.67 100.466 263.983 100.785C264.296 101.102 264.453 101.51 264.453 102.009C264.453 102.418 264.335 102.784 264.099 103.107C263.867 103.429 263.541 103.684 263.122 103.87C262.704 104.056 262.217 104.149 261.662 104.149C260.933 104.149 260.33 103.991 259.852 103.674C259.374 103.358 259.072 102.896 258.945 102.288L259.987 102.028C260.086 102.412 260.274 102.701 260.55 102.893C260.829 103.085 261.193 103.181 261.643 103.181C262.155 103.181 262.561 103.073 262.862 102.856C263.166 102.635 263.318 102.372 263.318 102.065C263.318 101.817 263.231 101.609 263.057 101.441C262.884 101.271 262.617 101.144 262.257 101.06L261.066 100.781C260.412 100.626 259.931 100.385 259.624 100.06C259.32 99.731 259.168 99.3201 259.168 98.827C259.168 98.4238 259.281 98.0672 259.508 97.757C259.737 97.4469 260.049 97.2034 260.443 97.0267C260.84 96.8499 261.289 96.7615 261.792 96.7615C262.499 96.7615 263.054 96.9166 263.457 97.2267C263.864 97.5368 264.152 97.9462 264.323 98.4548ZM272.897 96.8545V97.7849H269.194V96.8545H272.897ZM270.274 95.1426H271.371V101.953C271.371 102.263 271.416 102.496 271.506 102.651C271.599 102.803 271.717 102.905 271.86 102.958C272.006 103.008 272.159 103.032 272.32 103.032C272.441 103.032 272.541 103.026 272.618 103.014C272.696 102.998 272.758 102.986 272.804 102.977L273.028 103.963C272.953 103.991 272.849 104.019 272.716 104.047C272.583 104.078 272.414 104.093 272.209 104.093C271.899 104.093 271.595 104.026 271.297 103.893C271.002 103.76 270.757 103.557 270.562 103.284C270.37 103.011 270.274 102.666 270.274 102.251V95.1426ZM275.8 99.7016V104H274.702V94.4727H275.8V97.971H275.893C276.061 97.602 276.312 97.3089 276.647 97.0918C276.985 96.8716 277.435 96.7615 277.996 96.7615C278.483 96.7615 278.909 96.8592 279.275 97.0546C279.641 97.2469 279.925 97.543 280.127 97.9431C280.331 98.3401 280.434 98.8456 280.434 99.4597V104H279.336V99.5341C279.336 98.9665 279.188 98.5277 278.894 98.2176C278.602 97.9043 278.197 97.7477 277.68 97.7477C277.32 97.7477 276.997 97.8237 276.712 97.9757C276.43 98.1276 276.206 98.3494 276.042 98.6409C275.881 98.9324 275.8 99.286 275.8 99.7016ZM284.545 104.167C284.092 104.167 283.681 104.082 283.312 103.912C282.943 103.738 282.65 103.488 282.433 103.163C282.216 102.834 282.107 102.437 282.107 101.972C282.107 101.562 282.188 101.231 282.349 100.976C282.51 100.719 282.726 100.517 282.996 100.371C283.265 100.226 283.563 100.117 283.889 100.046C284.218 99.9714 284.548 99.9125 284.88 99.869C285.314 99.8132 285.666 99.7713 285.936 99.7434C286.209 99.7124 286.407 99.6612 286.531 99.5899C286.658 99.5186 286.722 99.3945 286.722 99.2178V99.1805C286.722 98.7215 286.596 98.3649 286.345 98.1106C286.097 97.8563 285.72 97.7291 285.215 97.7291C284.691 97.7291 284.28 97.8439 283.982 98.0734C283.684 98.3029 283.475 98.5479 283.354 98.8084L282.312 98.4362C282.498 98.002 282.746 97.664 283.056 97.4221C283.369 97.1771 283.71 97.0065 284.08 96.9104C284.452 96.8111 284.818 96.7615 285.177 96.7615C285.407 96.7615 285.671 96.7894 285.968 96.8452C286.269 96.898 286.559 97.0081 286.838 97.1755C287.12 97.343 287.355 97.5958 287.541 97.9338C287.727 98.2719 287.82 98.7246 287.82 99.2922V104H286.722V103.032H286.666C286.592 103.187 286.468 103.353 286.294 103.53C286.12 103.707 285.889 103.857 285.601 103.981C285.312 104.105 284.96 104.167 284.545 104.167ZM284.712 103.181C285.146 103.181 285.512 103.096 285.81 102.925C286.111 102.755 286.337 102.535 286.489 102.265C286.644 101.995 286.722 101.711 286.722 101.413V100.409C286.675 100.464 286.573 100.516 286.415 100.562C286.26 100.606 286.08 100.644 285.875 100.678C285.674 100.709 285.477 100.737 285.284 100.762C285.095 100.784 284.942 100.803 284.824 100.818C284.539 100.855 284.272 100.916 284.024 100.999C283.779 101.08 283.58 101.203 283.428 101.367C283.279 101.528 283.205 101.748 283.205 102.028C283.205 102.409 283.346 102.697 283.628 102.893C283.914 103.085 284.275 103.181 284.712 103.181ZM290.921 99.7016V104H289.824V96.8545H290.884V97.971H290.977C291.145 97.6082 291.399 97.3166 291.74 97.0964C292.081 96.8732 292.522 96.7615 293.061 96.7615C293.545 96.7615 293.969 96.8607 294.331 97.0592C294.694 97.2546 294.976 97.5523 295.178 97.9524C295.38 98.3494 295.48 98.8518 295.48 99.4597V104H294.383V99.5341C294.383 98.9728 294.237 98.5355 293.945 98.2222C293.654 97.9059 293.254 97.7477 292.745 97.7477C292.395 97.7477 292.081 97.8237 291.805 97.9757C291.532 98.1276 291.317 98.3494 291.159 98.6409C291.001 98.9324 290.921 99.286 290.921 99.7016ZM303.962 105.191V93.2818H304.725V105.191H303.962ZM306.53 96.8545C306.474 96.3831 306.248 96.0172 305.851 95.7567C305.454 95.4962 304.967 95.3659 304.39 95.3659C303.968 95.3659 303.599 95.4341 303.283 95.5706C302.97 95.7071 302.725 95.8947 302.548 96.1335C302.374 96.3723 302.287 96.6437 302.287 96.9476C302.287 97.2019 302.348 97.4205 302.469 97.6035C302.593 97.7834 302.751 97.9338 302.943 98.0548C303.136 98.1726 303.337 98.2703 303.548 98.3478C303.759 98.4223 303.953 98.4827 304.13 98.5293L305.097 98.7898C305.345 98.8549 305.621 98.9448 305.925 99.0596C306.232 99.1743 306.525 99.331 306.805 99.5294C307.087 99.7248 307.319 99.976 307.502 100.283C307.685 100.59 307.777 100.967 307.777 101.413C307.777 101.928 307.642 102.394 307.372 102.809C307.105 103.225 306.715 103.555 306.2 103.8C305.688 104.045 305.066 104.167 304.334 104.167C303.652 104.167 303.061 104.057 302.562 103.837C302.066 103.617 301.675 103.31 301.39 102.916C301.107 102.522 300.948 102.065 300.91 101.544H302.101C302.132 101.904 302.253 102.201 302.464 102.437C302.678 102.67 302.948 102.843 303.274 102.958C303.602 103.07 303.956 103.125 304.334 103.125C304.775 103.125 305.17 103.054 305.521 102.911C305.871 102.766 306.149 102.564 306.353 102.307C306.558 102.046 306.66 101.742 306.66 101.395C306.66 101.079 306.572 100.821 306.395 100.623C306.218 100.424 305.986 100.263 305.697 100.139C305.409 100.015 305.097 99.9062 304.762 99.8132L303.59 99.4783C302.846 99.2643 302.256 98.9588 301.822 98.5618C301.388 98.1649 301.171 97.6454 301.171 97.0034C301.171 96.47 301.315 96.0048 301.604 95.6078C301.895 95.2077 302.286 94.8976 302.776 94.6774C303.269 94.4541 303.819 94.3425 304.427 94.3425C305.041 94.3425 305.587 94.4526 306.065 94.6728C306.542 94.8899 306.921 95.1876 307.2 95.5659C307.482 95.9443 307.631 96.3738 307.647 96.8545H306.53ZM309.506 104V103.163L312.651 99.7202C313.02 99.317 313.324 98.9665 313.563 98.6688C313.801 98.368 313.978 98.0858 314.093 97.8222C314.211 97.5554 314.27 97.2763 314.27 96.9848C314.27 96.6499 314.189 96.3599 314.028 96.1149C313.87 95.8699 313.653 95.6807 313.377 95.5473C313.101 95.414 312.79 95.3473 312.446 95.3473C312.08 95.3473 311.761 95.4233 311.488 95.5752C311.218 95.7241 311.009 95.9335 310.86 96.2033C310.714 96.4731 310.641 96.7894 310.641 97.1523H309.543C309.543 96.594 309.672 96.104 309.929 95.6822C310.187 95.2605 310.537 94.9317 310.981 94.696C311.427 94.4603 311.928 94.3425 312.483 94.3425C313.042 94.3425 313.536 94.4603 313.967 94.696C314.398 94.9317 314.737 95.2496 314.982 95.6497C315.227 96.0498 315.349 96.4948 315.349 96.9848C315.349 97.3353 315.285 97.6779 315.158 98.0129C315.034 98.3447 314.817 98.7153 314.507 99.1247C314.2 99.531 313.774 100.027 313.228 100.613L311.088 102.902V102.977H315.517V104H309.506ZM319.094 102.697L319.019 103.2C318.967 103.553 318.886 103.932 318.778 104.335C318.672 104.738 318.562 105.118 318.447 105.475C318.333 105.831 318.238 106.115 318.164 106.326H317.326C317.366 106.128 317.419 105.865 317.484 105.54C317.549 105.214 317.615 104.85 317.68 104.447C317.748 104.047 317.804 103.637 317.847 103.218L317.903 102.697H319.094ZM323.895 104.13C323.349 104.13 322.857 104.022 322.42 103.805C321.983 103.588 321.632 103.29 321.369 102.911C321.105 102.533 320.961 102.102 320.936 101.618H322.053C322.096 102.049 322.291 102.406 322.639 102.688C322.989 102.967 323.408 103.107 323.895 103.107C324.286 103.107 324.633 103.015 324.937 102.832C325.244 102.649 325.484 102.398 325.658 102.079C325.835 101.756 325.923 101.392 325.923 100.986C325.923 100.57 325.832 100.199 325.649 99.8737C325.469 99.5449 325.221 99.286 324.904 99.0968C324.588 98.9076 324.227 98.8115 323.82 98.8084C323.529 98.8053 323.23 98.8502 322.922 98.9433C322.615 99.0332 322.363 99.1495 322.164 99.2922L321.085 99.1619L321.662 94.4727H326.612V95.4962H322.629L322.294 98.306H322.35C322.546 98.1509 322.791 98.0222 323.085 97.9199C323.38 97.8175 323.687 97.7663 324.006 97.7663C324.589 97.7663 325.109 97.9059 325.565 98.185C326.024 98.461 326.384 98.8394 326.644 99.3201C326.908 99.8008 327.039 100.35 327.039 100.967C327.039 101.575 326.903 102.117 326.63 102.595C326.36 103.07 325.988 103.445 325.514 103.721C325.039 103.994 324.5 104.13 323.895 104.13ZM331.995 104.13C331.294 104.13 330.697 103.94 330.204 103.558C329.711 103.173 329.334 102.617 329.074 101.888C328.813 101.156 328.683 100.272 328.683 99.2364C328.683 98.2067 328.813 97.3275 329.074 96.5987C329.337 95.8668 329.716 95.3085 330.209 94.924C330.705 94.5363 331.3 94.3425 331.995 94.3425C332.69 94.3425 333.284 94.5363 333.777 94.924C334.273 95.3085 334.651 95.8668 334.912 96.5987C335.175 97.3275 335.307 98.2067 335.307 99.2364C335.307 100.272 335.177 101.156 334.916 101.888C334.656 102.617 334.279 103.173 333.786 103.558C333.293 103.94 332.696 104.13 331.995 104.13ZM331.995 103.107C332.69 103.107 333.229 102.772 333.614 102.102C333.998 101.432 334.191 100.477 334.191 99.2364C334.191 98.4114 334.102 97.709 333.926 97.129C333.752 96.5491 333.501 96.1071 333.172 95.8032C332.846 95.4993 332.454 95.3473 331.995 95.3473C331.307 95.3473 330.768 95.6869 330.381 96.3661C329.993 97.0422 329.799 97.9989 329.799 99.2364C329.799 100.061 329.886 100.762 330.06 101.339C330.233 101.916 330.483 102.355 330.809 102.656C331.138 102.956 331.533 103.107 331.995 103.107ZM340.183 104.13C339.482 104.13 338.885 103.94 338.392 103.558C337.898 103.173 337.522 102.617 337.261 101.888C337.001 101.156 336.87 100.272 336.87 99.2364C336.87 98.2067 337.001 97.3275 337.261 96.5987C337.525 95.8668 337.903 95.3085 338.396 94.924C338.892 94.5363 339.488 94.3425 340.183 94.3425C340.877 94.3425 341.471 94.5363 341.964 94.924C342.46 95.3085 342.839 95.8668 343.099 96.5987C343.363 97.3275 343.495 98.2067 343.495 99.2364C343.495 100.272 343.364 101.156 343.104 101.888C342.843 102.617 342.467 103.173 341.974 103.558C341.48 103.94 340.883 104.13 340.183 104.13ZM340.183 103.107C340.877 103.107 341.417 102.772 341.801 102.102C342.186 101.432 342.378 100.477 342.378 99.2364C342.378 98.4114 342.29 97.709 342.113 97.129C341.939 96.5491 341.688 96.1071 341.359 95.8032C341.034 95.4993 340.642 95.3473 340.183 95.3473C339.494 95.3473 338.956 95.6869 338.568 96.3661C338.181 97.0422 337.987 97.9989 337.987 99.2364C337.987 100.061 338.074 100.762 338.247 101.339C338.421 101.916 338.671 102.355 338.996 102.656C339.325 102.956 339.72 103.107 340.183 103.107Z" fill="#A1A1AA"/>
<path d="M158.005 120V112.855H159.103V120H158.005ZM158.563 111.664C158.349 111.664 158.165 111.591 158.009 111.445C157.858 111.299 157.782 111.124 157.782 110.919C157.782 110.715 157.858 110.539 158.009 110.394C158.165 110.248 158.349 110.175 158.563 110.175C158.777 110.175 158.96 110.248 159.112 110.394C159.267 110.539 159.345 110.715 159.345 110.919C159.345 111.124 159.267 111.299 159.112 111.445C158.96 111.591 158.777 111.664 158.563 111.664ZM162.211 115.702V120H161.114V112.855H162.174V113.971H162.267C162.435 113.608 162.689 113.317 163.03 113.096C163.371 112.873 163.812 112.762 164.351 112.762C164.835 112.762 165.258 112.861 165.621 113.059C165.984 113.255 166.266 113.552 166.468 113.952C166.67 114.349 166.77 114.852 166.77 115.46V120H165.672V115.534C165.672 114.973 165.527 114.535 165.235 114.222C164.944 113.906 164.544 113.748 164.035 113.748C163.685 113.748 163.371 113.824 163.095 113.976C162.822 114.128 162.607 114.349 162.449 114.641C162.29 114.932 162.211 115.286 162.211 115.702ZM174.564 120.167C174.111 120.167 173.7 120.082 173.331 119.912C172.962 119.738 172.669 119.488 172.452 119.163C172.234 118.834 172.126 118.437 172.126 117.972C172.126 117.562 172.207 117.231 172.368 116.976C172.529 116.719 172.745 116.517 173.014 116.371C173.284 116.226 173.582 116.117 173.908 116.046C174.236 115.971 174.567 115.912 174.899 115.869C175.333 115.813 175.685 115.771 175.955 115.743C176.227 115.712 176.426 115.661 176.55 115.59C176.677 115.519 176.741 115.395 176.741 115.218V115.181C176.741 114.722 176.615 114.365 176.364 114.111C176.116 113.856 175.739 113.729 175.233 113.729C174.709 113.729 174.298 113.844 174.001 114.073C173.703 114.303 173.494 114.548 173.373 114.808L172.331 114.436C172.517 114.002 172.765 113.664 173.075 113.422C173.388 113.177 173.729 113.007 174.098 112.91C174.471 112.811 174.836 112.762 175.196 112.762C175.426 112.762 175.689 112.789 175.987 112.845C176.288 112.898 176.578 113.008 176.857 113.176C177.139 113.343 177.373 113.596 177.559 113.934C177.746 114.272 177.839 114.725 177.839 115.292V120H176.741V119.032H176.685C176.61 119.187 176.486 119.353 176.313 119.53C176.139 119.707 175.908 119.857 175.62 119.981C175.331 120.105 174.979 120.167 174.564 120.167ZM174.731 119.181C175.165 119.181 175.531 119.096 175.829 118.925C176.13 118.755 176.356 118.535 176.508 118.265C176.663 117.995 176.741 117.711 176.741 117.413V116.409C176.694 116.464 176.592 116.516 176.434 116.562C176.279 116.606 176.099 116.644 175.894 116.678C175.692 116.709 175.496 116.737 175.303 116.762C175.114 116.784 174.961 116.803 174.843 116.818C174.557 116.855 174.291 116.916 174.043 116.999C173.798 117.08 173.599 117.203 173.447 117.367C173.298 117.528 173.224 117.748 173.224 118.028C173.224 118.409 173.365 118.697 173.647 118.893C173.932 119.085 174.294 119.181 174.731 119.181ZM185.429 112.855L182.787 120H181.671L179.028 112.855H180.219L182.192 118.549H182.266L184.239 112.855H185.429ZM188.764 120.167C188.311 120.167 187.9 120.082 187.531 119.912C187.162 119.738 186.869 119.488 186.652 119.163C186.435 118.834 186.326 118.437 186.326 117.972C186.326 117.562 186.407 117.231 186.568 116.976C186.729 116.719 186.945 116.517 187.215 116.371C187.484 116.226 187.782 116.117 188.108 116.046C188.437 115.971 188.767 115.912 189.099 115.869C189.533 115.813 189.885 115.771 190.155 115.743C190.428 115.712 190.626 115.661 190.75 115.59C190.877 115.519 190.941 115.395 190.941 115.218V115.181C190.941 114.722 190.815 114.365 190.564 114.111C190.316 113.856 189.939 113.729 189.434 113.729C188.91 113.729 188.499 113.844 188.201 114.073C187.903 114.303 187.694 114.548 187.573 114.808L186.531 114.436C186.717 114.002 186.965 113.664 187.275 113.422C187.588 113.177 187.93 113.007 188.299 112.91C188.671 112.811 189.037 112.762 189.396 112.762C189.626 112.762 189.89 112.789 190.187 112.845C190.488 112.898 190.778 113.008 191.057 113.176C191.339 113.343 191.574 113.596 191.76 113.934C191.946 114.272 192.039 114.725 192.039 115.292V120H190.941V119.032H190.885C190.811 119.187 190.687 119.353 190.513 119.53C190.339 119.707 190.108 119.857 189.82 119.981C189.531 120.105 189.179 120.167 188.764 120.167ZM188.931 119.181C189.365 119.181 189.731 119.096 190.029 118.925C190.33 118.755 190.556 118.535 190.708 118.265C190.863 117.995 190.941 117.711 190.941 117.413V116.409C190.894 116.464 190.792 116.516 190.634 116.562C190.479 116.606 190.299 116.644 190.094 116.678C189.893 116.709 189.696 116.737 189.503 116.762C189.314 116.784 189.161 116.803 189.043 116.818C188.758 116.855 188.491 116.916 188.243 116.999C187.998 117.08 187.799 117.203 187.647 117.367C187.498 117.528 187.424 117.748 187.424 118.028C187.424 118.409 187.565 118.697 187.847 118.893C188.133 119.085 188.494 119.181 188.931 119.181ZM194.043 120V112.855H195.14V120H194.043ZM194.601 111.664C194.387 111.664 194.202 111.591 194.047 111.445C193.895 111.299 193.819 111.124 193.819 110.919C193.819 110.715 193.895 110.539 194.047 110.394C194.202 110.248 194.387 110.175 194.601 110.175C194.815 110.175 194.998 110.248 195.15 110.394C195.305 110.539 195.382 110.715 195.382 110.919C195.382 111.124 195.305 111.299 195.15 111.445C194.998 111.591 194.815 111.664 194.601 111.664ZM198.249 110.473V120H197.151V110.473H198.249ZM202.363 120.167C201.91 120.167 201.499 120.082 201.13 119.912C200.761 119.738 200.468 119.488 200.251 119.163C200.034 118.834 199.925 118.437 199.925 117.972C199.925 117.562 200.006 117.231 200.167 116.976C200.328 116.719 200.544 116.517 200.814 116.371C201.083 116.226 201.381 116.117 201.707 116.046C202.036 115.971 202.366 115.912 202.698 115.869C203.132 115.813 203.484 115.771 203.754 115.743C204.027 115.712 204.225 115.661 204.349 115.59C204.476 115.519 204.54 115.395 204.54 115.218V115.181C204.54 114.722 204.414 114.365 204.163 114.111C203.915 113.856 203.538 113.729 203.033 113.729C202.508 113.729 202.098 113.844 201.8 114.073C201.502 114.303 201.293 114.548 201.172 114.808L200.13 114.436C200.316 114.002 200.564 113.664 200.874 113.422C201.187 113.177 201.528 113.007 201.898 112.91C202.27 112.811 202.636 112.762 202.995 112.762C203.225 112.762 203.488 112.789 203.786 112.845C204.087 112.898 204.377 113.008 204.656 113.176C204.938 113.343 205.173 113.596 205.359 113.934C205.545 114.272 205.638 114.725 205.638 115.292V120H204.54V119.032H204.484C204.41 119.187 204.286 119.353 204.112 119.53C203.938 119.707 203.707 119.857 203.419 119.981C203.13 120.105 202.778 120.167 202.363 120.167ZM202.53 119.181C202.964 119.181 203.33 119.096 203.628 118.925C203.929 118.755 204.155 118.535 204.307 118.265C204.462 117.995 204.54 117.711 204.54 117.413V116.409C204.493 116.464 204.391 116.516 204.233 116.562C204.078 116.606 203.898 116.644 203.693 116.678C203.492 116.709 203.295 116.737 203.102 116.762C202.913 116.784 202.76 116.803 202.642 116.818C202.357 116.855 202.09 116.916 201.842 116.999C201.597 117.08 201.398 117.203 201.246 117.367C201.097 117.528 201.023 117.748 201.023 118.028C201.023 118.409 201.164 118.697 201.446 118.893C201.732 119.085 202.093 119.181 202.53 119.181ZM207.79 120V110.473H208.888V113.99H208.981C209.062 113.866 209.174 113.707 209.316 113.515C209.462 113.32 209.67 113.146 209.94 112.994C210.213 112.839 210.582 112.762 211.047 112.762C211.648 112.762 212.179 112.912 212.638 113.213C213.097 113.514 213.455 113.94 213.712 114.492C213.97 115.044 214.099 115.695 214.099 116.446C214.099 117.203 213.97 117.859 213.712 118.414C213.455 118.966 213.098 119.394 212.642 119.698C212.187 119.998 211.661 120.149 211.065 120.149C210.606 120.149 210.239 120.073 209.963 119.921C209.687 119.766 209.474 119.591 209.326 119.395C209.177 119.197 209.062 119.032 208.981 118.902H208.851V120H207.79ZM208.87 116.427C208.87 116.967 208.949 117.443 209.107 117.855C209.265 118.265 209.496 118.586 209.8 118.818C210.104 119.048 210.476 119.163 210.917 119.163C211.376 119.163 211.759 119.042 212.066 118.8C212.376 118.555 212.608 118.226 212.763 117.814C212.922 117.398 213.001 116.936 213.001 116.427C213.001 115.925 212.923 115.472 212.768 115.069C212.616 114.663 212.385 114.342 212.075 114.106C211.768 113.867 211.382 113.748 210.917 113.748C210.47 113.748 210.095 113.861 209.791 114.087C209.487 114.311 209.257 114.624 209.102 115.027C208.947 115.427 208.87 115.894 208.87 116.427ZM216.876 110.473V120H215.778V110.473H216.876ZM221.882 120.149C221.194 120.149 220.6 119.997 220.101 119.693C219.605 119.386 219.222 118.958 218.952 118.409C218.685 117.857 218.552 117.215 218.552 116.483C218.552 115.751 218.685 115.106 218.952 114.548C219.222 113.987 219.597 113.549 220.077 113.236C220.561 112.92 221.126 112.762 221.771 112.762C222.143 112.762 222.51 112.824 222.873 112.948C223.236 113.072 223.566 113.273 223.864 113.552C224.162 113.828 224.399 114.194 224.576 114.65C224.753 115.106 224.841 115.667 224.841 116.334V116.799H219.333V115.85H223.725C223.725 115.447 223.644 115.087 223.483 114.771C223.325 114.455 223.098 114.205 222.804 114.022C222.512 113.839 222.168 113.748 221.771 113.748C221.334 113.748 220.955 113.856 220.636 114.073C220.319 114.287 220.076 114.566 219.905 114.911C219.735 115.255 219.649 115.624 219.649 116.018V116.651C219.649 117.19 219.743 117.648 219.929 118.023C220.118 118.395 220.38 118.679 220.715 118.874C221.05 119.067 221.439 119.163 221.882 119.163C222.171 119.163 222.431 119.122 222.664 119.042C222.9 118.958 223.103 118.834 223.273 118.67C223.444 118.502 223.576 118.294 223.669 118.046L224.729 118.344C224.618 118.704 224.43 119.02 224.167 119.293C223.903 119.563 223.577 119.774 223.19 119.926C222.802 120.074 222.366 120.149 221.882 120.149ZM233.378 112.855V113.785H229.526V112.855H233.378ZM230.679 120V111.868C230.679 111.459 230.776 111.118 230.968 110.845C231.16 110.572 231.41 110.367 231.717 110.231C232.024 110.094 232.348 110.026 232.689 110.026C232.959 110.026 233.179 110.048 233.35 110.091C233.52 110.135 233.647 110.175 233.731 110.212L233.415 111.161C233.359 111.143 233.281 111.119 233.182 111.091C233.086 111.064 232.959 111.05 232.801 111.05C232.438 111.05 232.176 111.141 232.014 111.324C231.856 111.507 231.777 111.775 231.777 112.129V120H230.679ZM239.419 117.079V112.855H240.517V120H239.419V118.79H239.345C239.177 119.153 238.917 119.462 238.563 119.716C238.21 119.967 237.763 120.093 237.224 120.093C236.777 120.093 236.38 119.995 236.033 119.8C235.685 119.601 235.412 119.304 235.214 118.907C235.015 118.507 234.916 118.003 234.916 117.395V112.855H236.014V117.32C236.014 117.841 236.16 118.257 236.451 118.567C236.746 118.877 237.121 119.032 237.577 119.032C237.85 119.032 238.128 118.963 238.41 118.823C238.695 118.683 238.934 118.469 239.126 118.181C239.322 117.893 239.419 117.525 239.419 117.079ZM243.626 115.702V120H242.528V112.855H243.589V113.971H243.682C243.849 113.608 244.103 113.317 244.445 113.096C244.786 112.873 245.226 112.762 245.766 112.762C246.25 112.762 246.673 112.861 247.036 113.059C247.399 113.255 247.681 113.552 247.882 113.952C248.084 114.349 248.185 114.852 248.185 115.46V120H247.087V115.534C247.087 114.973 246.941 114.535 246.65 114.222C246.358 113.906 245.958 113.748 245.449 113.748C245.099 113.748 244.786 113.824 244.51 113.976C244.237 114.128 244.021 114.349 243.863 114.641C243.705 114.932 243.626 115.286 243.626 115.702ZM252.889 120.149C252.294 120.149 251.768 119.998 251.312 119.698C250.856 119.394 250.5 118.966 250.242 118.414C249.985 117.859 249.856 117.203 249.856 116.446C249.856 115.695 249.985 115.044 250.242 114.492C250.5 113.94 250.858 113.514 251.317 113.213C251.776 112.912 252.306 112.762 252.908 112.762C253.373 112.762 253.74 112.839 254.01 112.994C254.283 113.146 254.491 113.32 254.634 113.515C254.779 113.707 254.893 113.866 254.973 113.99H255.066V110.473H256.164V120H255.103V118.902H254.973C254.893 119.032 254.778 119.197 254.629 119.395C254.48 119.591 254.268 119.766 253.992 119.921C253.716 120.073 253.348 120.149 252.889 120.149ZM253.038 119.163C253.478 119.163 253.851 119.048 254.154 118.818C254.458 118.586 254.689 118.265 254.848 117.855C255.006 117.443 255.085 116.967 255.085 116.427C255.085 115.894 255.007 115.427 254.852 115.027C254.697 114.624 254.468 114.311 254.164 114.087C253.86 113.861 253.485 113.748 253.038 113.748C252.573 113.748 252.185 113.867 251.875 114.106C251.568 114.342 251.337 114.663 251.182 115.069C251.03 115.472 250.954 115.925 250.954 116.427C250.954 116.936 251.031 117.398 251.186 117.814C251.345 118.226 251.577 118.555 251.884 118.8C252.194 119.042 252.579 119.163 253.038 119.163ZM263.389 114.455L262.402 114.734C262.34 114.57 262.249 114.41 262.128 114.255C262.01 114.097 261.849 113.966 261.644 113.864C261.439 113.762 261.177 113.711 260.858 113.711C260.421 113.711 260.056 113.811 259.765 114.013C259.476 114.211 259.332 114.464 259.332 114.771C259.332 115.044 259.431 115.26 259.63 115.418C259.828 115.576 260.138 115.708 260.56 115.813L261.621 116.074C262.26 116.229 262.736 116.466 263.049 116.785C263.362 117.102 263.519 117.51 263.519 118.009C263.519 118.418 263.401 118.784 263.165 119.107C262.933 119.429 262.607 119.684 262.188 119.87C261.77 120.056 261.283 120.149 260.728 120.149C259.999 120.149 259.396 119.991 258.918 119.674C258.44 119.358 258.138 118.896 258.011 118.288L259.053 118.028C259.152 118.412 259.34 118.701 259.616 118.893C259.895 119.085 260.259 119.181 260.709 119.181C261.221 119.181 261.627 119.073 261.928 118.856C262.232 118.635 262.384 118.372 262.384 118.065C262.384 117.817 262.297 117.609 262.123 117.441C261.95 117.271 261.683 117.144 261.323 117.06L260.132 116.781C259.478 116.626 258.997 116.385 258.69 116.06C258.386 115.731 258.234 115.32 258.234 114.827C258.234 114.424 258.347 114.067 258.574 113.757C258.803 113.447 259.115 113.203 259.509 113.027C259.906 112.85 260.356 112.762 260.858 112.762C261.565 112.762 262.12 112.917 262.523 113.227C262.93 113.537 263.218 113.946 263.389 114.455ZM268.856 120V112.855H269.954V120H268.856ZM269.414 111.664C269.2 111.664 269.016 111.591 268.861 111.445C268.709 111.299 268.633 111.124 268.633 110.919C268.633 110.715 268.709 110.539 268.861 110.394C269.016 110.248 269.2 110.175 269.414 110.175C269.628 110.175 269.811 110.248 269.963 110.394C270.118 110.539 270.196 110.715 270.196 110.919C270.196 111.124 270.118 111.299 269.963 111.445C269.811 111.591 269.628 111.664 269.414 111.664ZM273.062 115.702V120H271.965V112.855H273.025V113.971H273.118C273.286 113.608 273.54 113.317 273.881 113.096C274.222 112.873 274.663 112.762 275.202 112.762C275.686 112.762 276.11 112.861 276.472 113.059C276.835 113.255 277.117 113.552 277.319 113.952C277.521 114.349 277.621 114.852 277.621 115.46V120H276.524V115.534C276.524 114.973 276.378 114.535 276.086 114.222C275.795 113.906 275.395 113.748 274.886 113.748C274.536 113.748 274.222 113.824 273.946 113.976C273.673 114.128 273.458 114.349 273.3 114.641C273.142 114.932 273.062 115.286 273.062 115.702ZM283.461 110.473H284.838L288.076 118.381H288.187L291.425 110.473H292.802V120H291.723V112.762H291.63L288.652 120H287.61L284.633 112.762H284.54V120H283.461V110.473ZM297.069 120.167C296.616 120.167 296.205 120.082 295.836 119.912C295.467 119.738 295.174 119.488 294.957 119.163C294.74 118.834 294.631 118.437 294.631 117.972C294.631 117.562 294.712 117.231 294.873 116.976C295.035 116.719 295.25 116.517 295.52 116.371C295.79 116.226 296.087 116.117 296.413 116.046C296.742 115.971 297.072 115.912 297.404 115.869C297.838 115.813 298.19 115.771 298.46 115.743C298.733 115.712 298.931 115.661 299.055 115.59C299.183 115.519 299.246 115.395 299.246 115.218V115.181C299.246 114.722 299.121 114.365 298.869 114.111C298.621 113.856 298.244 113.729 297.739 113.729C297.215 113.729 296.804 113.844 296.506 114.073C296.208 114.303 295.999 114.548 295.878 114.808L294.836 114.436C295.022 114.002 295.27 113.664 295.58 113.422C295.894 113.177 296.235 113.007 296.604 112.91C296.976 112.811 297.342 112.762 297.702 112.762C297.931 112.762 298.195 112.789 298.493 112.845C298.793 112.898 299.083 113.008 299.362 113.176C299.645 113.343 299.879 113.596 300.065 113.934C300.251 114.272 300.344 114.725 300.344 115.292V120H299.246V119.032H299.19C299.116 119.187 298.992 119.353 298.818 119.53C298.645 119.707 298.413 119.857 298.125 119.981C297.837 120.105 297.485 120.167 297.069 120.167ZM297.237 119.181C297.671 119.181 298.037 119.096 298.334 118.925C298.635 118.755 298.862 118.535 299.014 118.265C299.169 117.995 299.246 117.711 299.246 117.413V116.409C299.2 116.464 299.097 116.516 298.939 116.562C298.784 116.606 298.604 116.644 298.4 116.678C298.198 116.709 298.001 116.737 297.809 116.762C297.62 116.784 297.466 116.803 297.348 116.818C297.063 116.855 296.796 116.916 296.548 116.999C296.303 117.08 296.105 117.203 295.953 117.367C295.804 117.528 295.729 117.748 295.729 118.028C295.729 118.409 295.87 118.697 296.153 118.893C296.438 119.085 296.799 119.181 297.237 119.181ZM302.799 122.68C302.613 122.68 302.447 122.664 302.301 122.633C302.156 122.605 302.055 122.577 301.999 122.549L302.278 121.582C302.545 121.65 302.781 121.675 302.985 121.656C303.19 121.638 303.371 121.546 303.529 121.382C303.691 121.22 303.838 120.958 303.971 120.595L304.176 120.037L301.534 112.855H302.725L304.697 118.549H304.772L306.744 112.855H307.935L304.902 121.042C304.765 121.411 304.596 121.717 304.395 121.958C304.193 122.203 303.959 122.385 303.692 122.503C303.429 122.621 303.131 122.68 302.799 122.68Z" fill="#A1A1AA"/>
<path d="M147 103L139 89.0003C138.827 88.6954 138.303 88.1767 138 88.0003C137.697 87.8239 137.351 88.0003 137 88.0003C136.649 88.0003 136.303 87.8239 136 88.0003C135.697 88.1767 135.173 88.6954 135 89.0003L127 103C126.825 103.303 126.999 103.651 127 104C127.001 104.35 126.824 104.699 127 105C127.176 105.302 127.696 105.828 128 106C128.304 106.173 128.65 106.003 129 106H145C145.348 106 145.699 106.174 146 106C146.301 105.826 146.826 105.301 147 105C147.174 104.699 147 104.348 147 104C147 103.653 147.174 103.301 147 103Z" stroke="#FB923C" stroke-width="1.5" stroke-linecap="round" stroke-linejoin="round"/>
<path d="M137 94V98" stroke="#FB923C" stroke-width="1.5" stroke-linecap="round" stroke-linejoin="round"/>
<path d="M137 102H137.01" stroke="#FB923C" stroke-width="1.5" stroke-linecap="round" stroke-linejoin="round"/>
</g>
<defs>
<filter id="filter0_f_200_34681" x="238.891" y="179" width="234.208" height="63.0289" filterUnits="userSpaceOnUse" color-interpolation-filters="sRGB">
<feFlood flood-opacity="0" result="BackgroundImageFix"/>
<feBlend mode="normal" in="SourceGraphic" in2="BackgroundImageFix" result="shape"/>
<feGaussianBlur stdDeviation="3" result="effect1_foregroundBlur_200_34681"/>
</filter>
<filter id="filter1_f_200_34681" x="1" y="122.839" width="246" height="97.1616" filterUnits="userSpaceOnUse" color-interpolation-filters="sRGB">
<feFlood flood-opacity="0" result="BackgroundImageFix"/>
<feBlend mode="normal" in="SourceGraphic" in2="BackgroundImageFix" result="shape"/>
<feGaussianBlur stdDeviation="3" result="effect1_foregroundBlur_200_34681"/>
</filter>
<filter id="filter2_dd_200_34681" x="116" y="64" width="242" height="66" filterUnits="userSpaceOnUse" color-interpolation-filters="sRGB">
<feFlood flood-opacity="0" result="BackgroundImageFix"/>
<feColorMatrix in="SourceAlpha" type="matrix" values="0 0 0 0 0 0 0 0 0 0 0 0 0 0 0 0 0 0 127 0" result="hardAlpha"/>
<feOffset/>
<feComposite in2="hardAlpha" operator="out"/>
<feColorMatrix type="matrix" values="0 0 0 0 1 0 0 0 0 1 0 0 0 0 1 0 0 0 1 0"/>
<feBlend mode="normal" in2="BackgroundImageFix" result="effect1_dropShadow_200_34681"/>
<feColorMatrix in="SourceAlpha" type="matrix" values="0 0 0 0 0 0 0 0 0 0 0 0 0 0 0 0 0 0 127 0" result="hardAlpha"/>
<feMorphology radius="1" operator="dilate" in="SourceAlpha" result="effect2_dropShadow_200_34681"/>
<feOffset/>
<feComposite in2="hardAlpha" operator="out"/>
<feColorMatrix type="matrix" values="0 0 0 0 0.631373 0 0 0 0 0.631373 0 0 0 0 0.666667 0 0 0 0.2 0"/>
<feBlend mode="normal" in2="effect1_dropShadow_200_34681" result="effect2_dropShadow_200_34681"/>
<feBlend mode="normal" in="SourceGraphic" in2="effect2_dropShadow_200_34681" result="shape"/>
</filter>
<clipPath id="clip0_200_34681">
<rect width="472" height="215" fill="white" transform="translate(1 84)"/>
</clipPath>
</defs>
</svg>
