<svg width="90" height="24" viewBox="0 0 90 24" fill="none" xmlns="http://www.w3.org/2000/svg">
<g clip-path="url(#clip0_200_35091)">
<path d="M16 12C16 12.7956 15.5626 13.4374 15 14C14.4374 14.5626 13.7956 15 13 15C12.2044 15 11.5626 14.5626 11 14C10.4374 13.4374 10 12.7956 10 12C10 11.2044 10.4374 10.5626 11 10C11.5626 9.43739 12.2044 9 13 9C13.7956 9 14.4374 9.43739 15 10C15.5626 10.5626 16 11.2044 16 12Z" fill="#006ADC"/>
<path d="M13 22.9995C16.7893 22.9995 20.2765 21.0909 22 17.9995L24 18.9995C22.7141 21.4004 20.4912 22.8971 18 23.9995C15.5088 25.1018 12.6425 25.6621 10 24.9995C7.35749 24.3368 5.67576 22.1467 4 19.9995C2.32424 17.8522 1 15.7229 1 12.9995C1 10.2761 2.32424 7.14673 4 4.99948C5.67576 2.85223 7.35749 0.66211 10 -0.000521004C12.6425 -0.663152 15.5088 -0.102869 18 0.999479C20.4912 2.10183 22.7141 3.59855 24 5.99948L22 6.99948C21.138 5.44508 19.5261 4.91133 18 3.99948C16.4739 3.08763 14.7778 2.02239 13 1.99948C11.2222 1.97657 9.54909 2.12726 8 2.99948C6.45091 3.8717 5.90183 5.46781 5 6.99948C4.09817 8.53114 3.01087 11.2222 3 12.9995C2.98913 14.7767 3.11698 16.4569 4 17.9995C4.88302 19.5421 6.4617 21.1084 8 21.9995C9.5383 22.8906 11.2221 23.0007 13 22.9995Z" fill="white"/>
<path fill-rule="evenodd" clip-rule="evenodd" d="M12 20C13.9884 20 16.594 19.4304 18 18C19.406 16.5696 20 14.0228 20 12C20 9.97716 19.406 8.43036 18 7C16.594 5.56964 13.9884 5 12 5C10.0116 5 8.40604 5.56964 7 7C5.59396 8.43036 5 9.97716 5 12C5 14.0228 5.59396 16.5696 7 18C8.40604 19.4304 10.0116 20 12 20ZM12 18C12.7089 18 14.3451 17.276 15 17C15.6549 16.724 15.4987 16.5099 16 16C16.5013 15.4901 16.7287 14.6663 17 14C17.2713 13.3337 18 12.7212 18 12C18 11.2788 17.2713 10.6663 17 10C16.7287 9.33374 16.5013 8.50994 16 8C15.4987 7.49006 15.6549 7.27598 15 7C14.3451 6.72402 12.7089 7 12 7C10.5683 7 10.0123 6.97014 9 8C7.98765 9.02986 7 10.5436 7 12C7 13.4564 7.98765 14.9701 9 16C10.0123 17.0299 10.5683 18 12 18ZM58 19C57.2311 19.0373 56.6309 18.4487 56 18C55.4717 17.5759 55.2583 16.6322 55 16C54.868 15.6339 55.096 15.3661 55 15V18H52V2H55V10C55.096 9.6217 54.856 9.3661 55 9C55.2759 8.32881 55.4602 7.40271 56 7C56.6305 6.55041 57.2309 5.96172 58 6C58.9597 6 60.3042 6.48746 61 7C61.7078 7.50034 61.6161 8.07254 62 9C62.3839 9.91525 63 10.7308 63 12C63 13.2569 62.3839 15.0725 62 16C61.6612 16.8687 61.7426 17.4497 61 18C60.3042 18.5003 58.9837 19 58 19ZM55 15C54.8155 14.4419 54.9902 13.5887 55 13V12C55 11.3532 54.8321 10.5125 55 10C55.1919 9.49966 55.5921 9.29288 56 9C56.4199 8.70712 56.3282 8 57 8C57.8997 8 59.4122 8.32881 60 9C60.6118 9.67119 61 10.5844 61 12C61 13.4034 60.6118 15.3166 60 16C59.4122 16.6834 57.8997 17 57 17C56.3282 17 56.4199 16.2929 56 16C55.5921 15.7071 55.1919 15.5003 55 15Z" fill="white"/>
<path d="M31.0008 16.9996C31.8431 17.486 32.8578 17.9996 34.0008 17.9996C35.5048 17.9996 36.0984 17.7471 37.0008 16.9996C37.8965 16.2857 38.7256 15.1023 39.0008 13.9996L37.0008 12.9996C36.8805 13.8657 36.4821 14.4419 36.0008 14.9996C35.5195 15.5335 34.9874 15.9996 34.0008 15.9996C33.3631 15.9996 32.4821 16.2962 32.0008 15.9996C31.5169 15.6593 31.2241 14.5427 31.0008 13.9996C30.7428 13.3006 30.9813 12.7432 31.0008 11.9996C31.0008 11.169 30.7602 10.5928 31.0008 9.99956C31.2535 9.40632 31.5316 9.29619 32.0008 8.99956C32.4821 8.67921 33.3631 7.99956 34.0008 7.99956C34.9754 7.99956 35.5195 8.44191 36.0008 8.99956C36.4821 9.53348 36.8925 10.1453 37.0008 10.9996L39.0008 9.99956C38.7256 8.8968 37.8965 7.7134 37.0008 6.99956C35.9717 6.21386 35.3006 5.93344 34.0008 5.99956C32.8578 5.99956 31.831 6.50124 31.0008 6.99956C30.1586 7.48602 29.4701 8.09783 29.0008 8.99956C28.5327 9.98636 27.9759 10.9104 28.0008 11.9996C28.0008 13.1979 28.5556 14.0978 29.0008 14.9996C29.4701 15.9013 30.1706 16.4894 31.0008 16.9996Z" fill="white"/>
<path fill-rule="evenodd" clip-rule="evenodd" d="M42.0008 17.0006C42.8447 17.481 43.9158 18.0006 45.0008 18.0006C46.0133 18.0479 46.1271 17.5002 47.0008 17.0006C47.8745 16.5009 49.5515 15.8838 50.0008 15.0006C50.483 14.1099 50.0008 13.1842 50.0008 12.0006C50.0008 10.8169 50.483 9.89122 50.0008 9.00055C49.5633 8.13994 48.8531 7.48544 48.0008 7.00055C47.1056 6.50503 46.0308 5.98057 45.0008 6.00055C43.9158 6.00055 42.8567 6.50834 42.0008 7.00055C41.1569 7.48104 40.471 8.10989 40.0008 9.00055C39.5166 9.97102 38.9762 10.9222 39.0008 12.0006C39.0008 13.1842 39.5427 14.1099 40.0008 15.0006C40.4463 15.8619 41.1541 16.4986 42.0008 17.0006ZM46.0008 16.0006C45.5427 16.2818 45.6156 16.0006 45.0008 16.0006C44.398 16.0006 43.471 16.2818 43.0008 16.0006C42.5427 15.7193 42.266 14.5865 42.0008 14.0006C41.7194 13.2911 41.9739 12.7604 42.0008 12.0006C42.0008 11.0982 41.7356 10.5865 42.0008 10.0006C42.2781 9.41459 42.5427 8.28182 43.0008 8.00055C43.471 7.71929 44.398 8.00055 45.0008 8.00055C45.6036 8.00055 45.5427 7.71929 46.0008 8.00055C46.483 8.28182 46.7356 9.41459 47.0008 10.0006C47.2781 10.5865 48.0008 11.0982 48.0008 12.0006C48.0008 12.9029 47.2781 13.4146 47.0008 14.0006C46.7476 14.5865 46.483 15.7193 46.0008 16.0006ZM73.0008 18.0006H75.0008V16.0006H74.0008C73.8279 16.0113 74.139 16.1021 74.0008 16.0006C73.9044 15.8834 74.0008 15.2467 74.0008 15.0006V10.0006C74.0008 8.60596 72.7844 7.77403 72.0008 7.00055C71.2293 6.21536 70.4475 6.00055 69.0008 6.00055C67.9814 5.98433 66.9119 6.55566 66.0008 7.00055C65.0897 7.44544 64.5961 8.19586 64.0008 9.00055L65.0008 10.0006C65.315 9.39939 66.4429 9.40125 67.0008 9.00055C67.6067 8.58614 68.2602 7.98186 69.0008 8.00055C69.9652 8.00055 70.6994 8.53178 71.0008 9.00055C71.266 9.38729 70.9526 9.46147 71.0008 10.0006L67.0008 12.0006C66.0967 12.3521 65.5433 12.4849 65.0008 13.0006C64.4704 13.5162 64.0008 14.2271 64.0008 15.0006C64.0008 15.7975 64.4583 16.4966 65.0008 17.0006C65.6344 17.513 66.178 18.046 67.0008 18.0006C67.6975 18.0298 68.3951 18.3364 69.0008 18.0006C69.6066 17.6647 70.6721 16.5984 71.0008 16.0006C71.254 15.5669 70.8923 15.4224 71.0008 15.0006V16.0006C71.0008 16.5514 71.8079 16.6724 72.0008 17.0006C72.1937 17.317 71.6753 17.8599 72.0008 18.0006C72.3384 18.1412 72.603 18.0006 73.0008 18.0006ZM71.0008 13.0006V12.0006L68.0008 13.0006C67.4704 13.2349 67.2419 13.7662 67.0008 14.0006C66.7825 14.2207 66.9989 14.6948 67.0008 15.0006C67.0008 15.3521 66.7597 15.8013 67.0008 16.0006C67.254 16.1881 67.4824 16.0006 68.0008 16.0006C68.471 16.0006 68.6271 16.1295 69.0008 16.0006C69.553 15.8394 70.6612 15.4534 71.0008 15.0006C71.3404 14.5477 71.012 13.5609 71.0008 13.0006Z" fill="white"/>
<path d="M79 18H77V2H79V18ZM84 18C84.4975 18.2681 85.3129 18 86 18C86.6227 18.0239 87.4354 18.2595 88 18C88.5646 17.7405 88.619 16.4853 89 16L88 14C87.8342 14.3264 87.3317 14.6736 87 15C86.6683 15.3147 86.4738 16 86 16C85.5735 16 85.2843 15.2098 85 15C84.7394 14.7785 85 14.6528 85 14V8H88V6H85V3L82 5V6H81V8H82V15C82 15.6528 82.7394 15.4988 83 16C83.2725 16.4779 83.5143 17.7202 84 18Z" fill="white"/>
</g>
<defs>
<clipPath id="clip0_200_35091">
<rect width="90" height="24" fill="white"/>
</clipPath>
</defs>
</svg>
