<svg width="696" height="288" viewBox="0 0 696 288" fill="none" xmlns="http://www.w3.org/2000/svg">
<mask id="mask0_200_34783" style="mask-type:alpha" maskUnits="userSpaceOnUse" x="0" y="0" width="696" height="288">
<rect width="696" height="288" fill="url(#paint0_radial_200_34783)"/>
</mask>
<g mask="url(#mask0_200_34783)">
<g filter="url(#filter0_dd_200_34783)">
<path d="M32 32C32 14.3269 46.3269 0 64 0C81.6731 0 96 14.3269 96 32C96 49.6731 81.6731 64 64 64C46.3269 64 32 49.6731 32 32Z" fill="#09090B"/>
<g clip-path="url(#clip0_200_34783)">
<path d="M55.003 36C55.003 36.6593 54.3623 37.4518 54.003 38C53.6437 38.5482 53.6004 38.7477 53.003 39C52.4056 39.2523 51.6372 40.1286 51.003 40C50.3688 39.8714 49.4602 39.4662 49.003 39C48.5458 38.5338 48.1292 37.6466 48.003 37C47.8768 36.3534 47.7555 35.6091 48.003 35C48.2505 34.3909 48.4653 34.3663 49.003 34C49.5407 33.6337 50.3564 33 51.003 33H55.003V36ZM56.003 36C56.003 35.1159 56.3898 34.6251 57.003 34C57.6161 33.3749 59.1359 33 60.003 33C60.8701 33 61.3898 33.3749 62.003 34C62.6161 34.6251 63.003 35.1159 63.003 36V45C63.003 45.8841 62.6161 46.3749 62.003 47C61.3898 47.6251 60.8701 48 60.003 48C59.1359 48 57.6161 47.6251 57.003 47C56.3898 46.3749 56.003 45.8841 56.003 45V36Z" fill="#E01E5A"/>
<path d="M60.0032 23.0004C59.3519 23.0004 58.5448 22.3555 58.0032 22.0004C57.4617 21.6453 57.2525 21.5909 57.0032 21.0004C56.754 20.4098 55.8762 19.6273 56.0032 19.0004C56.1303 18.3735 56.5427 17.4523 57.0032 17.0004C57.4638 16.5484 58.3645 16.1251 59.0032 16.0004C59.642 15.8757 60.4015 15.7558 61.0032 16.0004C61.605 16.245 61.6414 16.4689 62.0032 17.0004C62.3651 17.5318 63.0032 18.3612 63.0032 19.0004V23.0004H60.0032ZM60.0032 24.0004C60.8779 24.0004 61.3848 24.3934 62.0032 25.0004C62.6217 25.6073 63.0032 27.142 63.0032 28.0004C63.0032 28.8588 62.6217 29.3934 62.0032 30.0004C61.3848 30.6073 60.8779 31.0004 60.0032 31.0004H51.0032C50.5708 31.0004 50.4028 31.1628 50.0032 31.0004C49.6037 30.838 49.309 30.3005 49.0032 30.0004C48.6975 29.7003 48.1687 29.3925 48.0032 29.0004C47.8377 28.6083 48.0032 28.4248 48.0032 28.0004C48.0032 27.576 47.8377 26.3925 48.0032 26.0004C48.1687 25.6083 48.6975 25.3005 49.0032 25.0004C49.309 24.7003 49.6037 25.1628 50.0032 25.0004C50.4028 24.838 50.5708 24.0004 51.0032 24.0004H60.0032Z" fill="#36C5F0"/>
<path d="M73 28C73 27.342 73.6407 26.5471 74 26C74.3593 25.4529 74.4026 25.2518 75 25C75.5974 24.7482 76.3658 23.8716 77 24C77.6342 24.1284 78.5428 24.5347 79 25C79.4572 25.4653 79.8738 26.3547 80 27C80.1262 27.6453 80.2475 28.3921 80 29C79.7525 29.6079 79.5377 29.6345 79 30C78.4623 30.3655 77.6466 31 77 31H73V28ZM72 28C72 28.8823 71.6132 29.3761 71 30C70.3868 30.6239 68.8671 31 68 31C67.1329 31 66.6132 30.6239 66 30C65.3868 29.3761 65 28.8823 65 28V19C65 18.1177 65.3868 17.6239 66 17C66.6132 16.3761 67.1329 16 68 16C68.8671 16 70.3868 16.3761 71 17C71.6132 17.6239 72 18.1177 72 19V28Z" fill="#2EB67D"/>
<path d="M68 41C68.658 41 69.4529 41.6407 70 42C70.5471 42.3593 70.7482 42.4026 71 43C71.2518 43.5974 72.1284 44.3658 72 45C71.8716 45.6342 71.4653 46.5428 71 47C70.5347 47.4572 69.6453 47.8738 69 48C68.3547 48.1262 67.6079 48.2475 67 48C66.3921 47.7525 66.3655 47.5377 66 47C65.6345 46.4623 65 45.6466 65 45V41H68ZM68 40C67.1177 40 66.6239 39.6132 66 39C65.3761 38.3868 65 36.8671 65 36C65 35.1329 65.3761 34.6132 66 34C66.6239 33.3868 67.1177 33 68 33H77C77.8823 33 78.3761 33.3868 79 34C79.6239 34.6132 80 35.1329 80 36C80 36.8671 79.6239 38.3868 79 39C78.3761 39.6132 77.8823 40 77 40H68Z" fill="#ECB22E"/>
</g>
</g>
<g filter="url(#filter1_dd_200_34783)">
<path d="M32 128C32 110.327 46.3269 96 64 96C81.6731 96 96 110.327 96 128C96 145.673 81.6731 160 64 160C46.3269 160 32 145.673 32 128Z" fill="#09090B"/>
<path d="M50 114C47.6364 114 46 115.989 46 119C46 122.307 48.0007 124.216 50 125C51.886 125.784 53 126.293 53 128C53 129.739 51.2951 131 50 131C48.7049 131 48 129.876 48 128C48 126.961 48 126.583 48 126C48 125.332 47.5747 125 47 125C46.3443 125 46 126.145 46 128C46 130.989 47.6526 133 50 133C52.3636 133 54 131.011 54 128C54 124.724 53.0155 123.784 51 123C49.1383 122.247 48 120.707 48 119C48 117.293 48.7049 116 50 116C51.3356 116 52.9757 117.283 53 119C53.0243 119.784 53.5143 120 54 120C54.5019 120 54.0243 119.837 54 119C53.9433 116.011 52.3231 114 50 114ZM60 133C61.0523 133 62 132.922 62 132C62 131.3 61.4209 131 61 131C60.6924 131 60.5019 131 60 131C58.6401 131 57 129.802 57 128C57 126.06 58.6158 124 60 124C61.5541 124 62 125.742 62 128V132C62 132.731 62.4739 133 63 133C63.5019 133 64 132.721 64 132V128C64 124.523 62.5902 122 60 122C57.5878 122 55 124.703 55 128C55.0243 131.191 57.6364 133 60 133ZM69 141C71.3636 141 73 139.011 73 136C73 132.693 72.0155 130.784 70 130C68.1383 129.216 67 128.707 67 127C67 125.293 67.7292 124 69 124C70.2951 124 72 125.124 72 127C72 128.049 71 128.417 71 129C71 129.668 71.4496 130 72 130C72.6799 130 74 128.855 74 127C74 124.011 71.3474 122 69 122C66.6364 122 65 123.989 65 127C65 130.276 66.9764 131.216 69 132C70.886 132.753 72 134.293 72 136C72 137.739 70.2708 139 69 139C67.6401 139 67.0243 137.739 67 136C66.9757 135.216 66.4614 135 66 135C65.4981 135 64.9757 135.163 65 136C65.0081 139.042 66.6526 141 69 141ZM79 133C80.2223 133 81.3201 132.551 82 132C82.6557 131.449 83 131.519 83 131C83 130.449 82.5666 130 82 130C81.3201 130 80.6756 131 79 131C77.5349 131 76 128.94 76 127C76 125.081 77.5996 124 79 124C80.5137 124 81 125.163 81 126C81 126.233 81.1781 127 81 127H79C78.4981 127 78 127.417 78 128C78 128.636 78.4981 129 79 129H81C81.9632 129 83 128.134 83 127C83 124.159 81.4445 122 79 122C76.5878 122 74 123.82 74 127C74 130.18 76.5393 133 79 133Z" fill="#52AF38"/>
</g>
<g filter="url(#filter2_dd_200_34783)">
<path d="M32 224C32 206.327 46.3269 192 64 192C81.6731 192 96 206.327 96 224C96 241.673 81.6731 256 64 256C46.3269 256 32 241.673 32 224Z" fill="#09090B"/>
<g clip-path="url(#clip1_200_34783)">
<path d="M58.9995 208C58.7041 208.002 59.2076 207.791 58.9995 208C58.7914 208.208 57.9995 208.705 57.9995 209V217H78.9995L69.9995 208H58.9995ZM79.9995 219C79.9995 218.854 80.0558 219.134 79.9995 219C79.9432 218.865 80.1035 219.103 79.9995 219C79.8955 218.897 79.1352 218.055 78.9995 218C78.8638 217.944 79.1461 217.999 78.9995 218H70.9995V239L79.9995 230V219ZM68.9995 240C68.7914 240.208 69.2949 239.998 68.9995 240C69.2076 239.791 69.9995 239.294 69.9995 239V231H48.9995L57.9995 240H68.9995ZM47.9995 229C47.7897 228.79 47.9995 229.295 47.9995 229C48.2093 229.209 48.7028 230 48.9995 230H56.9995V209L47.9995 218V229Z" fill="#0659A5"/>
</g>
</g>
<g filter="url(#filter3_dd_200_34783)">
<path d="M174 64C174 46.3269 188.327 32 206 32C223.673 32 238 46.3269 238 64C238 81.6731 223.673 96 206 96C188.327 96 174 81.6731 174 64Z" fill="#09090B"/>
<g clip-path="url(#clip2_200_34783)">
<path d="M206 83C211.309 82.9931 216.25 80.6575 220 77C223.75 73.3425 226.005 68.1668 226 63C226.002 60.4421 225.004 58.3641 224 56C222.996 53.6359 221.857 51.8103 220 50C218.143 48.1897 216.427 45.981 214 45C211.573 44.019 208.628 44.0023 206 44C203.37 44.0011 200.429 44.019 198 45C195.571 45.981 193.858 48.1886 192 50C190.142 51.8114 189.004 53.6343 188 56C186.996 58.3657 185.996 61.4406 186 64C185.998 69.1668 188.249 73.3441 192 77C195.751 80.6559 200.691 82.9954 206 83Z" fill="#13B5EA"/>
<path d="M195.001 63.9998L199.001 60.9998C199.012 61.1388 199.086 60.8872 199.001 60.9998C198.99 60.8608 199.103 60.0979 199.001 59.9998C198.899 59.9017 198.144 60.0094 198.001 59.9998C197.858 59.9901 198.116 59.9163 198.001 59.9998L194.001 63.9998L191.001 59.9998C190.887 59.8984 191.156 59.996 191.001 59.9998C190.846 60.0036 190.11 59.8929 190.001 59.9998C189.892 60.1066 190.003 60.8495 190.001 60.9998C189.895 60.8898 189.999 61.1501 190.001 60.9998L194.001 63.9998L190.001 67.9998C189.935 68.0503 190.04 67.9274 190.001 67.9998C189.962 68.0721 190.006 67.9182 190.001 67.9998C189.996 68.0814 189.972 68.9231 190.001 68.9998C189.942 68.9414 190.03 69.0764 190.001 68.9998C189.923 68.9698 190.06 69.0582 190.001 68.9998C190.079 69.0298 190.917 69.0034 191.001 68.9998C190.926 69.0364 191.085 68.9962 191.001 68.9998C190.948 69.063 191.076 68.9632 191.001 68.9998L194.001 64.9998L198.001 68.9998C197.886 68.9765 198.084 69.0809 198.001 68.9998C198.116 69.0231 198.892 69.0421 199.001 68.9998C198.934 69.0936 199.11 68.9575 199.001 68.9998C199.068 68.906 198.998 68.114 199.001 67.9998C199.001 67.8478 199.112 68.1071 199.001 67.9998L195.001 63.9998ZM215.001 63.9998C215.001 64.5904 216.402 65.9998 217.001 65.9998C217.289 65.9998 216.797 65.1976 217.001 64.9998C217.205 64.802 218.001 64.2795 218.001 63.9998C218.001 63.7201 217.205 64.1976 217.001 63.9998C216.797 63.802 217.289 62.9998 217.001 62.9998C216.402 62.9998 215.001 63.4176 215.001 63.9998ZM213.001 63.9998C213.001 63.3954 213.655 63.5022 214.001 62.9998C214.347 62.4973 214.426 62.2307 215.001 61.9998C215.576 61.7689 216.391 60.8812 217.001 60.9998C217.611 61.1183 218.562 61.5718 219.001 61.9998C219.44 62.4277 219.881 63.4068 220.001 63.9998C220.121 64.5928 219.24 65.4419 219.001 65.9998C218.762 66.5577 218.519 66.6652 218.001 66.9998C217.483 67.3344 217.623 68.0014 217.001 67.9998C216.169 67.9975 214.589 67.5723 214.001 66.9998C213.413 66.4273 213.001 64.8083 213.001 63.9998ZM212.001 63.9998C211.999 64.8432 212.52 66.2978 213.001 66.9998C213.482 67.7017 214.199 68.6763 215.001 68.9998C215.803 69.3233 216.149 69.1639 217.001 68.9998C217.853 68.8356 219.387 68.5961 220.001 67.9998C220.615 67.4034 220.832 65.827 221.001 64.9998C221.17 64.1725 221.334 63.7786 221.001 62.9998C220.668 62.2209 219.724 61.4673 219.001 60.9998C218.278 60.5323 217.869 59.9981 217.001 59.9998C215.839 60.002 213.822 60.201 213.001 60.9998C212.18 61.7986 212.001 62.8713 212.001 63.9998ZM212.001 59.9998C211.445 59.9998 210.444 60.6623 210.001 60.9998C209.971 60.8688 210.108 60.0841 210.001 59.9998C209.894 59.9154 209.139 60.0005 209.001 59.9998C208.923 60.0009 209.072 59.9699 209.001 59.9998C208.93 60.0296 209.055 59.9457 209.001 59.9998C208.947 60.0538 209.03 60.9297 209.001 60.9998C208.972 61.0698 209 60.9244 209.001 60.9998V67.9998C209.02 68.1409 208.891 68.9062 209.001 68.9998C208.854 69.0008 209.111 69.0934 209.001 68.9998C209.148 68.9987 209.892 69.0949 210.001 68.9998C210.11 68.9046 209.984 68.1412 210.001 67.9998V63.9998C210.001 62.5318 210.707 61.1516 212.001 60.9998C211.992 60.9998 212.123 60.9829 212.001 60.9998C212.001 61.3119 212.348 60.9913 212.001 60.9998C212.002 60.9219 212.031 60.0719 212.001 59.9998C212.058 60.0548 211.971 59.9276 212.001 59.9998C212.075 60.0291 211.944 59.9447 212.001 59.9998C212.081 59.9986 211.927 59.9705 212.001 59.9998ZM200.001 63.9998C200.174 63.3336 200.441 62.42 201.001 61.9998C201.561 61.5796 202.294 60.9949 203.001 60.9998C203.708 61.0046 204.447 61.5719 205.001 61.9998C205.555 62.4276 205.837 63.3313 206.001 63.9998H200.001ZM208.001 63.9998C207.89 63.4321 207.334 62.4785 207.001 61.9998C206.668 61.521 206.502 61.3113 206.001 60.9998C205.267 60.5532 203.866 59.9773 203.001 59.9998C202.136 60.0223 201.709 60.5157 201.001 60.9998C200.282 61.5006 199.308 62.1938 199.001 62.9998C198.694 63.8057 198.79 65.1654 199.001 65.9998C199.223 66.8277 199.34 67.4344 200.001 67.9998C200.662 68.5651 202.127 68.8909 203.001 68.9998C203.531 69.0673 203.471 69.1348 204.001 68.9998C204.466 68.8917 205.598 68.2492 206.001 67.9998C206.427 67.7382 206.654 67.4132 207.001 66.9998C207.244 66.7129 207.262 66.1938 207.001 65.9998C206.775 65.831 206.296 65.637 206.001 65.9998V66.9998C205.637 67.3969 204.519 67.8296 204.001 67.9998C203.483 68.17 203.538 68.1011 203.001 67.9998C202.464 67.8985 201.416 67.346 201.001 66.9998C200.586 66.6535 200.185 66.5002 200.001 65.9998C199.944 65.8403 200.031 65.166 200.001 64.9998H206.001C206.852 64.9745 208.123 64.6747 208.001 63.9998Z" fill="white"/>
</g>
</g>
<g filter="url(#filter4_dd_200_34783)">
<path d="M174 160C174 142.327 188.327 128 206 128C223.673 128 238 142.327 238 160C238 177.673 223.673 192 206 192C188.327 192 174 177.673 174 160Z" fill="#09090B"/>
<path d="M206 179C212.194 169.282 221.213 159.394 226 156C225.264 155.133 224.301 154.346 223 153C216.831 156.723 209.431 164.656 203 174C204.088 175.51 204.936 177.385 206 179Z" fill="#E31837"/>
<path d="M203 152C202.076 151.197 200.775 150.654 200 150C196.755 152.961 193.936 156.13 191 160C191.825 160.803 193.052 162.033 194 163C196.969 159.029 199.66 155.064 203 152Z" fill="#4974D5"/>
<path d="M209 148C206.378 145.932 203.805 144.171 201 143C200.16 143.548 198.814 144.408 198 145C199.031 145.488 202.717 147.173 206 150C206.84 149.304 208.186 148.592 209 148Z" fill="#E31837"/>
<path d="M195 147C191.753 149.68 189.025 152.629 186 156C186.739 156.589 186.989 157.146 188 158C191.021 154.362 194.685 150.763 198 148C196.98 147.367 195.612 147.324 195 147Z" fill="#4974D5"/>
<path d="M211 146C211.802 145.523 212.198 145.432 213 145C210.444 143.041 207.688 141.264 205 140C204.587 140.209 203.868 140.508 203 141C203.893 141.477 206.975 142.827 211 146ZM196 166C196.959 167.028 198.017 168.808 199 170C205.529 160.854 211.934 153.992 219 150C218.017 149.106 217.099 147.968 216 147C211.76 148.936 204.554 153.905 196 166Z" fill="#E31837"/>
</g>
<g filter="url(#filter5_dd_200_34783)">
<path d="M174 256C174 238.327 188.327 224 206 224C223.673 224 238 238.327 238 256C238 273.673 223.673 288 206 288C188.327 288 174 273.673 174 256Z" fill="#09090B"/>
<g clip-path="url(#clip3_200_34783)">
<path d="M220 270V269V268V267V266V265L219 264V262V261V260V259V258H218V257V256V255V254V253V252L217 250V249V248V247V246C216.99 245.931 217.051 246.048 217 246C216.949 245.951 217.071 246.006 217 246H214C214 246 212.168 244.185 212 244C211.965 243.964 212.046 244.019 212 244C211.954 243.98 212.05 244 212 244L210 272L220 270ZM198 257C198 260.516 201 260.837 201 263C201.001 263.165 201.065 262.847 201 263C200.935 263.152 201.121 263.884 201 264C200.879 264.115 200.157 263.94 200 264C199.843 264.059 200.168 264.006 200 264C198.591 264 197 263 197 263L196 265C196 265 197.846 267 201 267C203.622 267 205 265.038 205 262C205 258.152 201 257.625 201 256C201 255.694 201.066 255 203 255C203.83 255.015 204.253 254.643 205 255L207 252C207 252 205.712 251.026 204 251C199.646 251 198 254.047 198 257ZM203 255C203.83 255.017 204.254 254.641 205 255L207 252C207 252 205.712 251.026 204 251C199.646 251 198 254.047 198 257C198 260.516 201 260.837 201 263C201.001 263.165 201.065 262.847 201 263C200.935 263.152 201.121 263.884 201 264C200.879 264.115 200.157 263.94 200 264C199.843 264.059 200.168 264.006 200 264C198.591 264 197 263 197 263L196 265C196 265 197.846 267 201 267C203.622 267 205 265.038 205 262C205 258.152 201 257.625 201 256C201 255.694 201.066 255 203 255Z" fill="#93BE47"/>
<path d="M220 270L210 272L211 244C211.101 244 211.932 243.927 212 244C212.169 244.185 214 246 214 246H216C215.948 245.952 216.071 246.007 216 246C215.99 245.931 216.052 246.048 216 246V247H217V248V249V250V252V253L218 254V255V256V257V258V259V260L219 261V262V264V265V266V267L220 268V269V270Z" fill="#5F8D3E"/>
<path d="M201 256C201 257.627 206 258.173 206 262C206 265.01 203.71 267 201 267C197.755 267 196 265 196 265L197 262C197 262 198.548 264 200 264C200.173 264.006 200.838 264.059 201 264C201.162 263.941 200.875 263.114 201 263C200.933 263.152 201.125 262.886 201 263C201.001 263.165 201.067 262.848 201 263C201 260.866 198 260.491 198 257C198 254.062 199.511 251 204 251C205.758 251.026 207 251 207 251L206 255C205.231 254.644 203.856 254.017 203 254C200.999 254.013 201 255.704 201 256Z" fill="white"/>
<path d="M211 244H210C209.913 243.752 210.107 243.234 210 243C209.396 241.662 208.516 241 207 241C206.504 240.344 205.523 240 205 240C200.868 240.02 198.63 245.364 198 248C196.39 248.488 195.148 248.967 195 249C194.108 249.281 194.121 249.157 194 250C193.906 250.662 192 269 192 269L210 272L212 244C211.933 243.926 212.101 244 212 244C211.832 243.813 211.141 243.967 211 244ZM207 245L203 246C203.63 243.672 204.994 242.435 206 242C206.302 242.89 207.034 244.063 207 245ZM205 241C205.195 241 205.839 240.893 206 241C204.659 241.616 202.604 243.869 202 247H200C200.711 244.632 202.042 241 205 241ZM206 255C205.257 254.638 203.826 254.017 203 254C201.068 254 201 255.692 201 256C201 257.653 206 258.106 206 262C206 265.057 203.616 267 201 267C197.868 267 196 265 196 265L197 262C197 262 198.598 264 200 264C200.167 264.006 200.844 264.06 201 264C200.88 264.116 201.156 263.94 201 264C201.12 263.884 200.935 263.154 201 263C201.065 262.846 202.001 263.167 202 263C202 260.832 198 260.553 198 257C198 254.023 199.667 251 204 251C205.697 251.027 207 251 207 251L206 255ZM208 245C208.02 244.15 207.262 242.803 207 242C207.926 242.14 208.624 242.809 209 244L208 245Z" fill="#93BE47"/>
</g>
</g>
<g filter="url(#filter6_dd_200_34783)">
<path d="M316 32C316 14.3269 330.327 0 348 0C365.673 0 380 14.3269 380 32C380 49.6731 365.673 64 348 64C330.327 64 316 49.6731 316 32Z" fill="#09090B"/>
<g clip-path="url(#clip4_200_34783)">
<path d="M360.996 43C346.283 49.8504 336.842 43.4806 330.996 40C330.634 39.7812 329.463 40.401 329.996 41C331.944 43.3099 338.666 49 346.996 49C355.333 49 360.377 44.7754 360.996 44C361.611 43.23 361.62 42.747 360.996 43ZM364.996 41C364.6 40.4967 362.259 39.8482 360.996 40C359.731 40.1463 357.831 40.5446 357.996 41C358.081 41.1696 358.128 41.0766 358.996 41C359.869 40.9152 362.487 41.3504 362.996 42C363.508 42.6565 362.231 45.4954 361.996 46C361.768 46.5019 362.568 46.3351 362.996 46C363.417 45.6649 363.483 45.2267 363.996 44C364.505 42.765 365.297 41.3829 364.996 41Z" fill="#FF9900"/>
<path fill-rule="evenodd" clip-rule="evenodd" d="M351 29C351 30.7654 350.926 31.4321 350 33C349.251 34.275 348.323 35 347 35C345.195 35 344 33.9576 344 32C344 28.1372 347.601 28 351 28V29ZM356 40C355.848 40.1246 355.199 39.9808 355 40C354.801 40.0192 355.175 40.093 355 40C353.439 38.7505 352.86 38.1917 352 37C349.421 39.5367 347.346 40 344 40C340.045 40 337 37.7106 337 33C337 29.3213 339.057 26.224 342 25C344.554 23.9171 348.276 24.2996 351 24V23C351 21.9225 351.655 20.9311 351 20C350.426 19.1643 348.966 19 348 19C346.209 19 344.39 20.1647 344 22C343.921 22.4071 343.424 21.9812 343 22H339C338.617 21.9167 337.894 21.5683 338 21C339.051 15.6728 344.529 14 349 14C351.289 14 354.195 14.3286 356 16C358.289 18.0583 358 21.0106 358 24V31C358 33.1228 359.141 33.8526 360 35C360.305 35.4084 360.385 36.695 360 37C358.786 37.9893 357.189 38.983 356 40Z" fill="#A3A7B1"/>
<path d="M360.996 43C346.283 49.8504 336.842 43.4806 330.996 40C330.634 39.7812 329.463 40.401 329.996 41C331.944 43.3099 338.666 49 346.996 49C355.333 49 360.377 44.7754 360.996 44C361.611 43.23 361.62 42.747 360.996 43ZM364.996 41C364.6 40.4967 362.259 39.8482 360.996 40C359.731 40.1463 357.831 40.5446 357.996 41C358.081 41.1696 358.128 41.0766 358.996 41C359.869 40.9152 362.487 41.3504 362.996 42C363.508 42.6565 362.231 45.4954 361.996 46C361.768 46.5019 362.568 46.3351 362.996 46C363.417 45.6649 363.483 45.2267 363.996 44C364.505 42.765 365.297 41.3829 364.996 41Z" fill="#FF9900"/>
<path fill-rule="evenodd" clip-rule="evenodd" d="M351 29C351 30.7654 350.926 31.4321 350 33C349.251 34.275 348.323 35 347 35C345.195 35 344 33.9576 344 32C344 28.1372 347.601 28 351 28V29ZM356 40C355.848 40.1246 355.199 39.9808 355 40C354.801 40.0192 355.175 40.093 355 40C353.439 38.7505 352.86 38.1917 352 37C349.421 39.5367 347.346 40 344 40C340.045 40 337 37.7106 337 33C337 29.3213 339.057 26.224 342 25C344.554 23.9171 348.276 24.2996 351 24V23C351 21.9225 351.655 20.9311 351 20C350.426 19.1643 348.966 19 348 19C346.209 19 344.39 20.1647 344 22C343.921 22.4071 343.424 21.9812 343 22H339C338.617 21.9167 337.894 21.5683 338 21C339.051 15.6728 344.529 14 349 14C351.289 14 354.195 14.3286 356 16C358.289 18.0583 358 21.0106 358 24V31C358 33.1228 359.141 33.8526 360 35C360.305 35.4084 360.385 36.695 360 37C358.786 37.9893 357.189 38.983 356 40Z" fill="#A3A7B1"/>
</g>
</g>
<g filter="url(#filter7_dd_200_34783)">
<path d="M316 128C316 110.327 330.327 96 348 96C365.673 96 380 110.327 380 128C380 145.673 365.673 160 348 160C330.327 160 316 145.673 316 128Z" fill="#09090B"/>
<g clip-path="url(#clip5_200_34783)">
<path d="M348 148C353.304 148 358.249 145.751 362 142C365.751 138.249 368 133.304 368 128C368 122.696 365.751 117.751 362 114C358.249 110.249 353.304 108 348 108C342.696 108 337.751 110.249 334 114C330.249 117.751 328 122.696 328 128C328 133.304 330.249 138.249 334 142C337.751 145.751 342.696 148 348 148Z" fill="#2CA01C"/>
<path d="M334 128C334 130.046 334.536 131.553 336 133C337.464 134.447 339.929 136 342 136H343V133H342C340.698 133 338.92 131.909 338 131C337.08 130.091 337 129.286 337 128C337 126.714 337.08 125.909 338 125C338.92 124.091 340.698 123 342 123H344V138C344 138.76 344.457 139.463 345 140C345.543 140.537 346.231 140.999 347 141V120H342C340.974 120 339.948 120.612 339 121C338.052 121.388 336.725 122.283 336 123C335.275 123.717 335.392 124.064 335 125C334.608 125.936 334 126.987 334 128ZM355 120H354V123H355C356.301 123 358.08 124.091 359 125C359.92 125.909 360 126.715 360 128C360 129.285 359.92 130.091 359 131C358.08 131.909 356.301 133 355 133H353V118C353 117.241 352.544 116.537 352 116C351.456 115.463 350.769 115 350 115V136H355C357.071 136 359.536 134.447 361 133C362.464 131.553 363 130.046 363 128C363 125.954 362.464 124.447 361 123C359.536 121.553 357.071 120 355 120Z" fill="white"/>
</g>
</g>
<g filter="url(#filter8_dd_200_34783)">
<path d="M316 224C316 206.327 330.327 192 348 192C365.673 192 380 206.327 380 224C380 241.673 365.673 256 348 256C330.327 256 316 241.673 316 224Z" fill="#09090B"/>
<path d="M363 224C363.083 222.68 363.325 222 364 222C364.667 222 364.95 222.697 365 224H363ZM368 225C368 223.529 367.617 221.816 367 221C366.664 220.581 366.488 220.22 366 220C365.512 219.781 364.534 219.972 364 220C361.507 220 360 222.016 360 225C360 226.665 360.183 228.202 361 229C361.817 229.799 363.641 230 365 230C366.101 230.058 367.052 229.568 368 229L367 227C366.225 227.404 365.867 227.009 365 227C364.425 227 364.283 227.253 364 227C363.717 226.748 363.058 226.623 363 226H368V225ZM356 227C355.75 227.454 355.434 227 355 227C354.725 227.002 354.246 227.124 354 227V223C354.5 222.471 355.833 222 356 222C356.75 222 357 223.411 357 225C357 225.908 356.267 226.53 356 227ZM359 221C358.747 220.67 358.376 220.176 358 220C357.624 219.825 357.414 219.982 357 220C356.083 220 354.709 220.244 354 221V220H352V233H354V229C354.434 229.135 355.55 230 356 230C356.488 230.012 356.549 229.189 357 229C357.451 228.812 357.663 229.357 358 229C358.834 228.092 360 226.774 360 225C360 223.42 359.592 221.757 359 221ZM347 220H350V230H347V220ZM349 219C349.411 219 349.709 219.294 350 219C350.291 218.707 350 218.415 350 218C350 217.586 350.291 216.294 350 216C349.709 215.707 349.411 216 349 216C348.589 216 348.291 215.707 348 216C347.709 216.294 347 217.586 347 218C347 218.415 347.709 218.707 348 219C348.291 219.294 348.589 219 349 219ZM346 220C345.166 220 344.25 220.21 344 221V220H342V230H345V223C345.367 222.546 345.291 223 346 223C346.175 223 346.825 222.975 347 223V220C346.82 219.951 346.186 220.007 346 220ZM341 222V220H339V217L337 218L336 220H335V222H336V227C336 228.127 336.416 228.521 337 229C337.584 229.471 338.016 230 339 230C339.517 230 340.5 229.143 341 229V227C340.717 227.076 340.283 226.984 340 227C339.416 227 339 226.69 339 226V222H341ZM332 224C331.141 223.681 331 223.396 331 223C331 222.605 331.516 222 332 222C332.884 222 333.375 222.681 334 223V221C333.086 220.575 332.007 219.99 331 220C330.136 219.96 329.695 220.481 329 221C328.416 221.488 328 222.109 328 223C328 224.615 329.408 225.42 331 226C332.034 226.379 332 226.597 332 227C332 227.404 331.592 227 331 227C330.4 227 328.8 227.471 328 227V229C329.017 229.524 329.858 230.005 331 230C332.05 230 333.408 229.471 334 229C334.584 228.53 335 228.001 335 227C335.008 225.353 333.617 224.589 332 224Z" fill="#5C65EA"/>
</g>
<g filter="url(#filter9_dd_200_34783)">
<path d="M458 64C458 46.3269 472.327 32 490 32C507.673 32 522 46.3269 522 64C522 81.6731 507.673 96 490 96C472.327 96 458 81.6731 458 64Z" fill="#09090B"/>
<g clip-path="url(#clip6_200_34783)">
<path d="M510 53V80L509 84V57L510 53Z" fill="#E79225"/>
<path d="M501 53L500 58H509L510 53H501Z" fill="#FFF16D"/>
<path d="M500 57H509V84H500V57Z" fill="url(#paint1_linear_200_34783)"/>
<path d="M507.997 66C507.828 64.7322 507.328 63.9912 506.997 63C506.682 62.0319 506.397 61.4841 505.997 61C505.605 60.5159 504.458 60 503.997 60C503.536 60 503.389 60.5159 502.997 61C502.597 61.4841 502.312 62.0319 501.997 63C501.667 63.9912 501.166 64.7322 500.997 66C500.828 67.2678 500.997 69.4786 500.997 71C500.997 72.4753 500.828 73.7091 500.997 75C501.165 76.2918 501.673 77.0104 501.997 78C502.304 78.9451 502.605 79.5159 502.997 80C503.389 80.4841 504.528 81 504.997 81C505.431 81.0098 505.596 80.4948 505.997 80C506.398 79.5052 506.691 78.9221 506.997 78C507.328 76.9858 507.828 76.2678 507.997 75C508.169 73.6779 508.001 72.4188 507.997 71C507.997 69.4556 508.166 67.2678 507.997 66ZM505.997 75C505.667 76.1756 504.566 77 503.997 77C503.428 77 503.328 76.1756 502.997 75C502.667 73.8244 502.997 72.0746 502.997 70C502.997 67.8793 502.674 67.1987 502.997 66C503.328 64.8013 503.421 64 503.997 64C504.566 64 505.667 64.8244 505.997 66C506.32 67.1987 505.997 67.8793 505.997 70C505.997 72.0746 506.328 73.8244 505.997 75Z" fill="white"/>
<path d="M499 50L500 75L499 80L498 56L499 50Z" fill="#009ADA"/>
<path d="M490 54L499 50L498 56L490 60V56V54Z" fill="#91C9ED"/>
<path d="M499 56L500 80L491 83L490 60L491 59L499 56Z" fill="url(#paint2_linear_200_34783)"/>
<path d="M497.002 60.9996C496.965 60.2644 497.138 59.3783 497.002 58.9996C496.89 58.7069 496.152 58.9936 496.002 58.9996C495.965 58.9996 496.047 58.9773 496.002 58.9996C495.791 59.0887 496.1 59.5317 496.002 59.9996C495.927 60.3338 496.002 60.5095 496.002 60.9996C496.002 61.1778 495.995 61.7991 496.002 61.9996V67.9996L494.002 68.9996L493.002 62.9996C492.965 62.2867 493.138 61.3783 493.002 60.9996C492.895 60.6957 493.151 60.9957 493.002 60.9996C492.965 60.9996 493.04 60.9773 493.002 60.9996C492.784 61.0887 492.108 61.5317 492.002 61.9996C491.927 62.3338 492.002 62.5095 492.002 62.9996C491.995 62.7768 492.002 63.1778 492.002 62.9996L493.002 79.9996C493.04 80.7348 492.852 81.6208 493.002 81.9996C493.115 82.2892 493.837 81.9996 494.002 81.9996C493.957 82.0219 494.047 81.9996 494.002 81.9996C493.924 82.1463 494.094 81.9693 494.002 81.9996C494.08 81.8529 493.954 81.233 494.002 80.9996C494.07 80.6654 494.002 80.4675 494.002 79.9996C494.002 79.8214 494.01 79.2001 494.002 78.9996V72.9996L496.002 71.9996L497.002 77.9996C497.04 78.7348 496.859 79.6431 497.002 79.9996C496.853 80.0055 497.114 80.2923 497.002 79.9996C496.957 80.0219 497.04 79.9996 497.002 79.9996C497.213 79.9105 497.904 79.4675 498.002 78.9996C498.07 78.6654 498.002 78.4897 498.002 77.9996C498.002 77.8214 498.01 78.2001 498.002 77.9996L497.002 60.9996Z" fill="white"/>
<path d="M483 44L480 65V74L484 52V51L483 44Z" fill="#66BF6B"/>
<path d="M483 44L484 52L491 62L490 54L483 44Z" fill="#98D0A0"/>
<path d="M483 52L491 62L488 84L480 74L483 52Z" fill="url(#paint3_linear_200_34783)"/>
<path d="M488.997 63C488.837 61.7436 488.286 60.8974 487.997 60C487.708 59.1026 487.407 58.516 486.997 58C486.587 57.484 486.415 57 485.997 57C485.572 57 484.407 57.4615 483.997 58C483.564 58.5609 483.316 58.9904 482.997 60C482.667 61.0467 482.179 62.6737 481.997 64C481.8 65.3686 482.02 66.6314 481.997 68C481.997 69.2115 481.853 70.8333 481.997 72C482.149 73.234 482.708 74.1026 482.997 75C483.286 75.8974 483.572 76.484 483.997 77C484.399 77.516 484.579 78 484.997 78C485.415 78 486.587 77.516 486.997 77C487.43 76.4391 487.678 76.0096 487.997 75C488.316 74.0128 488.8 72.391 488.997 71C489.194 69.609 488.974 68.3686 488.997 67C489.005 65.766 489.149 64.1891 488.997 63ZM486.997 70C486.724 71.9295 486.445 73.2821 485.997 74C485.754 74.3814 485.248 74 484.997 74C484.777 74 485.232 74.2917 484.997 74C484.481 73.3494 484.134 72.4808 483.997 71C483.951 70.5064 482.997 69.5385 482.997 69C482.997 67.9231 483.815 66.2788 483.997 65C484.278 63.0256 484.549 61.7404 484.997 61C485.24 60.5962 485.746 61 485.997 61C485.754 60.7083 486.225 61 485.997 61C486.506 61.6506 486.86 62.5192 486.997 64C487.043 64.4712 487.997 65.4615 487.997 66C487.997 67.1218 487.187 68.6763 486.997 70Z" fill="white"/>
<path d="M479 48L480 72L479 80L478 57V56L479 48Z" fill="#760D16"/>
<path d="M470 61L471 52L479 48L478 57L470 61Z" fill="#EF463E"/>
<path d="M479 56L480 79L471 83L470 60L479 56Z" fill="url(#paint4_linear_200_34783)"/>
<path d="M478.003 75.9999C477.939 75.7743 478.113 76.1126 478.003 75.9999C477.892 75.8871 477.169 75.9999 477.003 75.9999C476.852 75.9999 477.193 75.9096 477.003 75.9999L474.003 76.9999C474.026 76.5036 474.852 75.7893 475.003 74.9999C475.169 74.1202 474.678 73.2179 475.003 71.9999C475.113 71.5713 475.939 71.2254 476.003 70.9999C476.042 70.842 475.923 70.2931 476.003 69.9999C476.517 68.0826 476.876 66.2179 477.003 64.9999C477.074 64.3006 476.987 63.6991 477.003 62.9999C477.003 63.1803 477.01 62.7969 477.003 62.9999C477.003 62.5036 477.034 61.4961 477.003 60.9999C476.979 60.5487 477.058 60.2931 477.003 59.9999C476.947 59.7066 477.082 59.1352 477.003 58.9999C476.915 58.842 476.169 58.9999 476.003 58.9999C475.868 58.9999 476.201 58.9096 476.003 58.9999L473.003 59.9999C472.694 60.1578 472.145 60.5938 472.003 60.9999C471.946 61.1491 472.033 61.7977 472.003 61.9999C471.973 62.2021 472.001 61.7804 472.003 61.9999C472.003 62.1126 471.995 62.8645 472.003 62.9999C472.042 63.6314 471.82 63.7743 472.003 63.9999C472.113 64.1352 472.844 63.9999 473.003 63.9999C472.876 64.0675 473.106 63.9999 473.003 63.9999L475.003 62.9999C475.003 62.9096 475.003 63.1126 475.003 62.9999C475.003 63.3833 475.05 64.639 475.003 64.9999C474.939 65.5187 475.264 66.0751 475.003 66.9999C474.931 67.248 474.153 67.4811 474.003 67.9999C473.416 70.0074 473.256 71.5788 473.003 72.9999C472.82 73.9923 473.074 75.0299 473.003 75.9999C472.963 76.5638 473.003 77.4811 473.003 77.9999C473.003 78.3608 472.979 78.6615 473.003 78.9999C473.034 79.4961 472.947 79.6841 473.003 79.9999C473.058 80.3157 472.915 80.8645 473.003 80.9999C473.09 81.1352 473.828 80.9999 474.003 80.9999C473.63 81.1803 474.216 80.9999 474.003 80.9999L477.003 79.9999C477.414 79.7969 477.836 79.3833 478.003 78.9999C478.137 78.6841 478.003 77.4961 478.003 76.9999C478.003 76.8645 478.01 77.1352 478.003 76.9999C477.987 76.7066 478.074 76.2254 478.003 75.9999Z" fill="white"/>
</g>
</g>
<g filter="url(#filter10_dd_200_34783)">
<path d="M458 160C458 142.327 472.327 128 490 128C507.673 128 522 142.327 522 160C522 177.673 507.673 192 490 192C472.327 192 458 177.673 458 160Z" fill="#09090B"/>
<g clip-path="url(#clip7_200_34783)">
<path fill-rule="evenodd" clip-rule="evenodd" d="M481 146H499C500.242 146 502.122 146.122 503 147C503.878 147.878 504 149.758 504 151V169C504 171.581 501.581 174 499 174H481C479.758 174 477.878 173.878 477 173C476.122 172.122 476 170.242 476 169V151C476 148.41 478.419 146 481 146ZM497 169C497.814 169 499 167.823 499 167V153C499 152.177 497.823 151 497 151H483C482.805 151 482.18 150.925 482 151C481.82 151.075 482.137 151.862 482 152C481.863 152.138 481.074 151.82 481 152C480.926 152.18 480.999 152.805 481 153V167C481 167.823 482.186 169 483 169H497Z" fill="#A3A7B1"/>
<path d="M487 164C486.774 163.997 486.159 164.162 486 164C485.841 163.838 486 163.228 486 163V157C485.958 157.106 485.999 156.885 486 157C486.043 156.894 485.921 156.081 486 156C486.08 155.918 486.896 156.044 487 156C486.887 156 487.105 155.956 487 156H493C492.897 155.955 493.113 156.001 493 156C493.104 156.044 493.922 155.919 494 156C494.079 156.081 493.958 156.894 494 157C494.001 156.886 494.042 157.105 494 157V163C494 163.23 494.161 163.837 494 164C493.84 164.162 493.228 164 493 164H487Z" fill="#A3A7B1"/>
</g>
</g>
<g filter="url(#filter11_dd_200_34783)">
<path d="M458 256C458 238.327 472.327 224 490 224C507.673 224 522 238.327 522 256C522 273.673 507.673 288 490 288C472.327 288 458 273.673 458 256Z" fill="#09090B"/>
<path d="M505 242H474V269H505V242Z" fill="white"/>
<path d="M474 269H506V242H474V269ZM495 263H488V250H491V261H495C497.489 261 498 259.174 498 255C498 250.781 497.516 250 495 250H487V263H483V250H477V247H496C500.471 247 502 249.523 502 255C502 262.198 499.284 263 495 263Z" fill="#54B848"/>
</g>
<g filter="url(#filter12_dd_200_34783)">
<path d="M600 32C600 14.3269 614.327 0 632 0C649.673 0 664 14.3269 664 32C664 49.6731 649.673 64 632 64C614.327 64 600 49.6731 600 32Z" fill="#09090B"/>
<g clip-path="url(#clip8_200_34783)">
<path d="M624 40C623.522 40.5402 622.648 40.6938 622 41C621.352 41.3062 620.715 41.977 620 42C617.2 42 615 39.9441 615 37C615 34.0559 617.2 32 620 32C621.342 32 622.88 32.8374 624 34L626 31C625.347 30.153 623.956 29.4643 623 29C622.044 28.5357 621.059 28.985 620 29C617.777 29 615.458 29.6367 614 31C612.411 32.4888 612 34.5242 612 37C612 39.4758 612.411 41.5196 614 43C615.57 44.4156 617.901 45.0445 620 45C621.061 45.0163 622.043 44.4643 623 44C623.957 43.5357 625.346 42.8481 626 42L624 40ZM628 45H631V29H628V45ZM643 41C642.3 41.4755 641.841 41.9612 641 42C639.971 42 639 41.2295 639 40V32H643V29H639V24L636 26V29H634V32H636V41C636 43.4256 637.892 44.9498 640 45C641.441 45.0251 642.481 44.3178 643 44V41ZM646 45H649V29H646V45Z" fill="#3471A8"/>
<path d="M652 26C650.539 23.9204 648.235 22.1757 646 21C643.765 19.8243 641.517 19.0135 639 19C636.483 19.0168 634.233 19.8213 632 21C629.767 22.1787 627.459 23.9184 626 26H630C631.19 24.7269 632.413 23.697 634 23C635.587 22.303 637.271 22.009 639 22C642.404 22 645.466 23.3527 648 26H652Z" fill="#EE1C25"/>
</g>
</g>
<g filter="url(#filter13_dd_200_34783)">
<path d="M600 128C600 110.327 614.327 96 632 96C649.673 96 664 110.327 664 128C664 145.673 649.673 160 632 160C614.327 160 600 145.673 600 128Z" fill="#09090B"/>
<g clip-path="url(#clip9_200_34783)">
<path d="M644.999 135C644.62 134.731 645.393 135.27 644.999 135C644.931 134.879 645.116 135.077 644.999 135C645.067 135.122 644.995 134.862 644.999 135C645.002 135.139 645.061 135.876 644.999 136C644.937 136.125 645.112 135.918 644.999 136C644.886 136.082 644.137 135.979 643.999 136C643.86 136.022 644.132 136.045 643.999 136C643.866 135.956 644.096 136.1 643.999 136C643.902 135.901 643.038 136.133 642.999 136C642.885 135.656 643.695 135.202 643.999 135C644.302 134.799 644.695 134.791 644.999 135ZM633.999 143C633.809 143.015 634.188 143 633.999 143C634.393 142.985 634.62 143.045 634.999 143C634.347 143.075 635.317 142.971 634.999 143C635.401 142.956 636.082 142.604 635.999 143C635.974 143.085 636.056 143.933 635.999 144C635.941 144.067 636.079 143.962 635.999 144C635.885 144.045 635.105 143.985 634.999 144C633.818 144.115 633.178 144.125 631.999 144C629.175 143.698 626.243 142.717 623.999 141C621.435 139.06 620.024 136.023 618.999 133C617.959 129.852 617.979 126.155 618.999 123C619.836 120.438 620.997 117.832 622.999 116C625 114.169 627.345 112.632 629.999 112C632.653 111.369 635.371 112.271 637.999 113C640.627 113.73 643.069 115.096 644.999 117C645.321 117.267 645.807 117.632 645.999 118C646.19 118.369 645.968 118.587 645.999 119C646.025 119.394 646.129 119.628 645.999 120C645.869 120.373 645.265 120.707 644.999 121C644.533 121.509 643.684 121.888 642.999 122C642.313 122.113 642.607 122.333 641.999 122C641.796 121.893 641.163 121.16 640.999 121C640.802 120.828 640.188 121.172 639.999 121C638.796 119.895 637.591 118.404 635.999 118C634.406 117.597 632.593 117.604 630.999 118C629.952 118.27 628.924 119.425 627.999 120C626.199 121.177 625.73 122.996 624.999 125C624.249 127.07 624.259 128.928 624.999 131C625.707 133.006 626.199 134.834 627.999 136C629.854 137.217 632.78 138.201 634.999 138C636.083 137.903 636.99 137.442 637.999 137C637.885 137.015 638.105 136.956 637.999 137C637.908 136.973 638.092 136.983 637.999 137C638.196 137.068 638.953 136.813 638.999 137C639.052 137.172 639.128 137.851 638.999 138C638.926 138.073 638.096 137.964 637.999 138C637.877 138.045 638.128 137.956 637.999 138C635.942 138.845 634.181 139.446 631.999 139C631.87 138.828 632.143 139.15 631.999 139V140H632.999C634.559 140.116 635.514 139.486 636.999 139C638.484 138.515 639.817 138.012 640.999 137H641.999C642.143 136.873 641.817 136.075 641.999 136C642.147 135.926 642.833 135.984 642.999 136C642.869 135.898 643.164 136.017 642.999 136C643.128 136.103 643.946 136.845 643.999 137C644.04 136.842 644.051 137.156 643.999 137C643.946 137.172 643.128 137.896 642.999 138C641.711 139.147 640.623 140.398 638.999 141C637.283 141.61 634.821 142.056 632.999 142C632.93 141.799 633.075 142.202 632.999 142L633.999 143C633.999 143.03 633.999 143 633.999 143ZM641.999 140C640.361 141.197 642.257 139.813 641.999 140C642.075 139.933 642.87 140.038 642.999 140C642.904 139.949 643.107 139.997 642.999 140C642.943 139.909 643.093 140.052 642.999 140C643.112 140.187 643.128 140.821 642.999 141C642.923 141.105 643.097 140.926 642.999 141C642.771 141.15 642.241 141.866 641.999 142C640.571 142.877 638.635 143.619 636.999 144C636.756 144.053 637.158 143.202 636.999 143C636.926 142.917 637.011 143.11 636.999 143C636.946 143.098 636.987 142.891 636.999 143C636.907 143.051 637.04 142.905 636.999 143C637.112 142.941 636.885 142.03 636.999 142C637.264 141.941 637.718 142.083 637.999 142C639.603 141.512 640.658 140.997 641.999 140ZM643.999 138C643.786 138.225 644.226 137.769 643.999 138C644.06 137.937 644.916 138.03 644.999 138C644.911 137.991 645.082 137.97 644.999 138C644.924 137.954 645.087 138.01 644.999 138C644.953 137.926 645.073 138.047 644.999 138C645.075 138.128 645.029 138.858 644.999 139C644.936 139.172 645.144 138.888 644.999 139C644.847 139.158 645.158 139.858 644.999 140C644.93 140.067 644.091 139.971 643.999 140C643.907 140.03 644.095 140.014 643.999 140C643.919 139.986 644.065 140.045 643.999 140C643.932 139.956 644.041 140.068 643.999 140C643.956 139.933 644.01 139.079 643.999 139C643.977 139.077 643.987 138.922 643.999 139C643.87 139.128 644.059 138.828 643.999 139C644.15 138.851 643.862 138.158 643.999 138ZM640.999 135C640.438 135.576 641.219 134.776 640.999 135C640.867 135.018 641.093 134.908 640.999 135C641.13 134.983 641.883 134.936 641.999 135C642.097 134.754 642.234 135.143 641.999 135C641.938 135.128 641.097 135.911 640.999 136C640.885 136.113 641.112 135.911 640.999 136C640.809 136.172 641.196 136.843 640.999 137H639.999C639.764 137.172 639.219 137.195 638.999 137C638.906 136.924 639.027 137.116 638.999 137C638.97 136.885 638.953 136.11 638.999 136C638.899 136.064 639.048 135.894 638.999 136H639.999C640.416 135.686 640.627 135.374 640.999 135ZM633.999 124C633.794 124 634.188 124 633.999 124C634.914 124.202 636.455 125.246 636.999 126C637.542 126.754 637.107 127.082 636.999 128C636.89 128.919 636.703 130.39 635.999 131C635.294 131.611 633.937 132.012 632.999 132C632.24 131.956 631.583 131.487 630.999 131C630.549 130.641 630.239 130.52 629.999 130C629.758 129.481 629.979 128.571 629.999 128C630.019 127.43 629.723 126.502 629.999 126C630.275 125.498 631.525 125.328 631.999 125C632.636 124.552 633.218 124 633.999 124Z" fill="#FF6C36"/>
</g>
</g>
<g filter="url(#filter14_dd_200_34783)">
<path d="M600 224C600 206.327 614.327 192 632 192C649.673 192 664 206.327 664 224C664 241.673 649.673 256 632 256C614.327 256 600 241.673 600 224Z" fill="#09090B"/>
<path d="M634 233V209H632C626.618 209.901 621.404 211.134 616 212V234C621.316 234.873 626.647 236.091 632 237H634V233ZM626 228C625.329 226.674 625.506 225.395 625 224C624.513 225.323 623.545 226.698 623 228C622.229 228 621.771 228.029 621 228C621.902 226.362 622.069 224.617 623 223C622.207 221.319 621.815 219.66 621 218H623C623.516 219.266 624.564 220.698 625 222C625.487 220.619 625.404 219.316 626 218L629 217C628.069 218.781 626.945 221.212 626 223L629 228C628.156 227.928 626.844 228.057 626 228ZM635 212V214H639V216H635V218H639V220H635V222H639V224H635V226H639V228H635V230H639V232H635V234H648V212H635ZM645 232H640V230H645V232ZM645 228H640V226H645V228ZM645 224H640V222H645V224ZM645 220H640V218H645V220ZM645 216H640V214H645V216Z" fill="#00AC47"/>
</g>
</g>
<defs>
<filter id="filter0_dd_200_34783" x="31" y="-1" width="66" height="66" filterUnits="userSpaceOnUse" color-interpolation-filters="sRGB">
<feFlood flood-opacity="0" result="BackgroundImageFix"/>
<feColorMatrix in="SourceAlpha" type="matrix" values="0 0 0 0 0 0 0 0 0 0 0 0 0 0 0 0 0 0 127 0" result="hardAlpha"/>
<feOffset/>
<feComposite in2="hardAlpha" operator="out"/>
<feColorMatrix type="matrix" values="0 0 0 0 1 0 0 0 0 1 0 0 0 0 1 0 0 0 1 0"/>
<feBlend mode="normal" in2="BackgroundImageFix" result="effect1_dropShadow_200_34783"/>
<feColorMatrix in="SourceAlpha" type="matrix" values="0 0 0 0 0 0 0 0 0 0 0 0 0 0 0 0 0 0 127 0" result="hardAlpha"/>
<feMorphology radius="1" operator="dilate" in="SourceAlpha" result="effect2_dropShadow_200_34783"/>
<feOffset/>
<feComposite in2="hardAlpha" operator="out"/>
<feColorMatrix type="matrix" values="0 0 0 0 0.956863 0 0 0 0 0.956863 0 0 0 0 0.960784 0 0 0 0.1 0"/>
<feBlend mode="normal" in2="effect1_dropShadow_200_34783" result="effect2_dropShadow_200_34783"/>
<feBlend mode="normal" in="SourceGraphic" in2="effect2_dropShadow_200_34783" result="shape"/>
</filter>
<filter id="filter1_dd_200_34783" x="31" y="95" width="66" height="66" filterUnits="userSpaceOnUse" color-interpolation-filters="sRGB">
<feFlood flood-opacity="0" result="BackgroundImageFix"/>
<feColorMatrix in="SourceAlpha" type="matrix" values="0 0 0 0 0 0 0 0 0 0 0 0 0 0 0 0 0 0 127 0" result="hardAlpha"/>
<feOffset/>
<feComposite in2="hardAlpha" operator="out"/>
<feColorMatrix type="matrix" values="0 0 0 0 1 0 0 0 0 1 0 0 0 0 1 0 0 0 1 0"/>
<feBlend mode="normal" in2="BackgroundImageFix" result="effect1_dropShadow_200_34783"/>
<feColorMatrix in="SourceAlpha" type="matrix" values="0 0 0 0 0 0 0 0 0 0 0 0 0 0 0 0 0 0 127 0" result="hardAlpha"/>
<feMorphology radius="1" operator="dilate" in="SourceAlpha" result="effect2_dropShadow_200_34783"/>
<feOffset/>
<feComposite in2="hardAlpha" operator="out"/>
<feColorMatrix type="matrix" values="0 0 0 0 0.956863 0 0 0 0 0.956863 0 0 0 0 0.960784 0 0 0 0.1 0"/>
<feBlend mode="normal" in2="effect1_dropShadow_200_34783" result="effect2_dropShadow_200_34783"/>
<feBlend mode="normal" in="SourceGraphic" in2="effect2_dropShadow_200_34783" result="shape"/>
</filter>
<filter id="filter2_dd_200_34783" x="31" y="191" width="66" height="66" filterUnits="userSpaceOnUse" color-interpolation-filters="sRGB">
<feFlood flood-opacity="0" result="BackgroundImageFix"/>
<feColorMatrix in="SourceAlpha" type="matrix" values="0 0 0 0 0 0 0 0 0 0 0 0 0 0 0 0 0 0 127 0" result="hardAlpha"/>
<feOffset/>
<feComposite in2="hardAlpha" operator="out"/>
<feColorMatrix type="matrix" values="0 0 0 0 1 0 0 0 0 1 0 0 0 0 1 0 0 0 1 0"/>
<feBlend mode="normal" in2="BackgroundImageFix" result="effect1_dropShadow_200_34783"/>
<feColorMatrix in="SourceAlpha" type="matrix" values="0 0 0 0 0 0 0 0 0 0 0 0 0 0 0 0 0 0 127 0" result="hardAlpha"/>
<feMorphology radius="1" operator="dilate" in="SourceAlpha" result="effect2_dropShadow_200_34783"/>
<feOffset/>
<feComposite in2="hardAlpha" operator="out"/>
<feColorMatrix type="matrix" values="0 0 0 0 0.956863 0 0 0 0 0.956863 0 0 0 0 0.960784 0 0 0 0.1 0"/>
<feBlend mode="normal" in2="effect1_dropShadow_200_34783" result="effect2_dropShadow_200_34783"/>
<feBlend mode="normal" in="SourceGraphic" in2="effect2_dropShadow_200_34783" result="shape"/>
</filter>
<filter id="filter3_dd_200_34783" x="173" y="31" width="66" height="66" filterUnits="userSpaceOnUse" color-interpolation-filters="sRGB">
<feFlood flood-opacity="0" result="BackgroundImageFix"/>
<feColorMatrix in="SourceAlpha" type="matrix" values="0 0 0 0 0 0 0 0 0 0 0 0 0 0 0 0 0 0 127 0" result="hardAlpha"/>
<feOffset/>
<feComposite in2="hardAlpha" operator="out"/>
<feColorMatrix type="matrix" values="0 0 0 0 1 0 0 0 0 1 0 0 0 0 1 0 0 0 1 0"/>
<feBlend mode="normal" in2="BackgroundImageFix" result="effect1_dropShadow_200_34783"/>
<feColorMatrix in="SourceAlpha" type="matrix" values="0 0 0 0 0 0 0 0 0 0 0 0 0 0 0 0 0 0 127 0" result="hardAlpha"/>
<feMorphology radius="1" operator="dilate" in="SourceAlpha" result="effect2_dropShadow_200_34783"/>
<feOffset/>
<feComposite in2="hardAlpha" operator="out"/>
<feColorMatrix type="matrix" values="0 0 0 0 0.956863 0 0 0 0 0.956863 0 0 0 0 0.960784 0 0 0 0.1 0"/>
<feBlend mode="normal" in2="effect1_dropShadow_200_34783" result="effect2_dropShadow_200_34783"/>
<feBlend mode="normal" in="SourceGraphic" in2="effect2_dropShadow_200_34783" result="shape"/>
</filter>
<filter id="filter4_dd_200_34783" x="173" y="127" width="66" height="66" filterUnits="userSpaceOnUse" color-interpolation-filters="sRGB">
<feFlood flood-opacity="0" result="BackgroundImageFix"/>
<feColorMatrix in="SourceAlpha" type="matrix" values="0 0 0 0 0 0 0 0 0 0 0 0 0 0 0 0 0 0 127 0" result="hardAlpha"/>
<feOffset/>
<feComposite in2="hardAlpha" operator="out"/>
<feColorMatrix type="matrix" values="0 0 0 0 1 0 0 0 0 1 0 0 0 0 1 0 0 0 1 0"/>
<feBlend mode="normal" in2="BackgroundImageFix" result="effect1_dropShadow_200_34783"/>
<feColorMatrix in="SourceAlpha" type="matrix" values="0 0 0 0 0 0 0 0 0 0 0 0 0 0 0 0 0 0 127 0" result="hardAlpha"/>
<feMorphology radius="1" operator="dilate" in="SourceAlpha" result="effect2_dropShadow_200_34783"/>
<feOffset/>
<feComposite in2="hardAlpha" operator="out"/>
<feColorMatrix type="matrix" values="0 0 0 0 0.956863 0 0 0 0 0.956863 0 0 0 0 0.960784 0 0 0 0.1 0"/>
<feBlend mode="normal" in2="effect1_dropShadow_200_34783" result="effect2_dropShadow_200_34783"/>
<feBlend mode="normal" in="SourceGraphic" in2="effect2_dropShadow_200_34783" result="shape"/>
</filter>
<filter id="filter5_dd_200_34783" x="173" y="223" width="66" height="66" filterUnits="userSpaceOnUse" color-interpolation-filters="sRGB">
<feFlood flood-opacity="0" result="BackgroundImageFix"/>
<feColorMatrix in="SourceAlpha" type="matrix" values="0 0 0 0 0 0 0 0 0 0 0 0 0 0 0 0 0 0 127 0" result="hardAlpha"/>
<feOffset/>
<feComposite in2="hardAlpha" operator="out"/>
<feColorMatrix type="matrix" values="0 0 0 0 1 0 0 0 0 1 0 0 0 0 1 0 0 0 1 0"/>
<feBlend mode="normal" in2="BackgroundImageFix" result="effect1_dropShadow_200_34783"/>
<feColorMatrix in="SourceAlpha" type="matrix" values="0 0 0 0 0 0 0 0 0 0 0 0 0 0 0 0 0 0 127 0" result="hardAlpha"/>
<feMorphology radius="1" operator="dilate" in="SourceAlpha" result="effect2_dropShadow_200_34783"/>
<feOffset/>
<feComposite in2="hardAlpha" operator="out"/>
<feColorMatrix type="matrix" values="0 0 0 0 0.956863 0 0 0 0 0.956863 0 0 0 0 0.960784 0 0 0 0.1 0"/>
<feBlend mode="normal" in2="effect1_dropShadow_200_34783" result="effect2_dropShadow_200_34783"/>
<feBlend mode="normal" in="SourceGraphic" in2="effect2_dropShadow_200_34783" result="shape"/>
</filter>
<filter id="filter6_dd_200_34783" x="315" y="-1" width="66" height="66" filterUnits="userSpaceOnUse" color-interpolation-filters="sRGB">
<feFlood flood-opacity="0" result="BackgroundImageFix"/>
<feColorMatrix in="SourceAlpha" type="matrix" values="0 0 0 0 0 0 0 0 0 0 0 0 0 0 0 0 0 0 127 0" result="hardAlpha"/>
<feOffset/>
<feComposite in2="hardAlpha" operator="out"/>
<feColorMatrix type="matrix" values="0 0 0 0 1 0 0 0 0 1 0 0 0 0 1 0 0 0 1 0"/>
<feBlend mode="normal" in2="BackgroundImageFix" result="effect1_dropShadow_200_34783"/>
<feColorMatrix in="SourceAlpha" type="matrix" values="0 0 0 0 0 0 0 0 0 0 0 0 0 0 0 0 0 0 127 0" result="hardAlpha"/>
<feMorphology radius="1" operator="dilate" in="SourceAlpha" result="effect2_dropShadow_200_34783"/>
<feOffset/>
<feComposite in2="hardAlpha" operator="out"/>
<feColorMatrix type="matrix" values="0 0 0 0 0.956863 0 0 0 0 0.956863 0 0 0 0 0.960784 0 0 0 0.1 0"/>
<feBlend mode="normal" in2="effect1_dropShadow_200_34783" result="effect2_dropShadow_200_34783"/>
<feBlend mode="normal" in="SourceGraphic" in2="effect2_dropShadow_200_34783" result="shape"/>
</filter>
<filter id="filter7_dd_200_34783" x="315" y="95" width="66" height="66" filterUnits="userSpaceOnUse" color-interpolation-filters="sRGB">
<feFlood flood-opacity="0" result="BackgroundImageFix"/>
<feColorMatrix in="SourceAlpha" type="matrix" values="0 0 0 0 0 0 0 0 0 0 0 0 0 0 0 0 0 0 127 0" result="hardAlpha"/>
<feOffset/>
<feComposite in2="hardAlpha" operator="out"/>
<feColorMatrix type="matrix" values="0 0 0 0 1 0 0 0 0 1 0 0 0 0 1 0 0 0 1 0"/>
<feBlend mode="normal" in2="BackgroundImageFix" result="effect1_dropShadow_200_34783"/>
<feColorMatrix in="SourceAlpha" type="matrix" values="0 0 0 0 0 0 0 0 0 0 0 0 0 0 0 0 0 0 127 0" result="hardAlpha"/>
<feMorphology radius="1" operator="dilate" in="SourceAlpha" result="effect2_dropShadow_200_34783"/>
<feOffset/>
<feComposite in2="hardAlpha" operator="out"/>
<feColorMatrix type="matrix" values="0 0 0 0 0.956863 0 0 0 0 0.956863 0 0 0 0 0.960784 0 0 0 0.1 0"/>
<feBlend mode="normal" in2="effect1_dropShadow_200_34783" result="effect2_dropShadow_200_34783"/>
<feBlend mode="normal" in="SourceGraphic" in2="effect2_dropShadow_200_34783" result="shape"/>
</filter>
<filter id="filter8_dd_200_34783" x="315" y="191" width="66" height="66" filterUnits="userSpaceOnUse" color-interpolation-filters="sRGB">
<feFlood flood-opacity="0" result="BackgroundImageFix"/>
<feColorMatrix in="SourceAlpha" type="matrix" values="0 0 0 0 0 0 0 0 0 0 0 0 0 0 0 0 0 0 127 0" result="hardAlpha"/>
<feOffset/>
<feComposite in2="hardAlpha" operator="out"/>
<feColorMatrix type="matrix" values="0 0 0 0 1 0 0 0 0 1 0 0 0 0 1 0 0 0 1 0"/>
<feBlend mode="normal" in2="BackgroundImageFix" result="effect1_dropShadow_200_34783"/>
<feColorMatrix in="SourceAlpha" type="matrix" values="0 0 0 0 0 0 0 0 0 0 0 0 0 0 0 0 0 0 127 0" result="hardAlpha"/>
<feMorphology radius="1" operator="dilate" in="SourceAlpha" result="effect2_dropShadow_200_34783"/>
<feOffset/>
<feComposite in2="hardAlpha" operator="out"/>
<feColorMatrix type="matrix" values="0 0 0 0 0.956863 0 0 0 0 0.956863 0 0 0 0 0.960784 0 0 0 0.1 0"/>
<feBlend mode="normal" in2="effect1_dropShadow_200_34783" result="effect2_dropShadow_200_34783"/>
<feBlend mode="normal" in="SourceGraphic" in2="effect2_dropShadow_200_34783" result="shape"/>
</filter>
<filter id="filter9_dd_200_34783" x="457" y="31" width="66" height="66" filterUnits="userSpaceOnUse" color-interpolation-filters="sRGB">
<feFlood flood-opacity="0" result="BackgroundImageFix"/>
<feColorMatrix in="SourceAlpha" type="matrix" values="0 0 0 0 0 0 0 0 0 0 0 0 0 0 0 0 0 0 127 0" result="hardAlpha"/>
<feOffset/>
<feComposite in2="hardAlpha" operator="out"/>
<feColorMatrix type="matrix" values="0 0 0 0 1 0 0 0 0 1 0 0 0 0 1 0 0 0 1 0"/>
<feBlend mode="normal" in2="BackgroundImageFix" result="effect1_dropShadow_200_34783"/>
<feColorMatrix in="SourceAlpha" type="matrix" values="0 0 0 0 0 0 0 0 0 0 0 0 0 0 0 0 0 0 127 0" result="hardAlpha"/>
<feMorphology radius="1" operator="dilate" in="SourceAlpha" result="effect2_dropShadow_200_34783"/>
<feOffset/>
<feComposite in2="hardAlpha" operator="out"/>
<feColorMatrix type="matrix" values="0 0 0 0 0.956863 0 0 0 0 0.956863 0 0 0 0 0.960784 0 0 0 0.1 0"/>
<feBlend mode="normal" in2="effect1_dropShadow_200_34783" result="effect2_dropShadow_200_34783"/>
<feBlend mode="normal" in="SourceGraphic" in2="effect2_dropShadow_200_34783" result="shape"/>
</filter>
<filter id="filter10_dd_200_34783" x="457" y="127" width="66" height="66" filterUnits="userSpaceOnUse" color-interpolation-filters="sRGB">
<feFlood flood-opacity="0" result="BackgroundImageFix"/>
<feColorMatrix in="SourceAlpha" type="matrix" values="0 0 0 0 0 0 0 0 0 0 0 0 0 0 0 0 0 0 127 0" result="hardAlpha"/>
<feOffset/>
<feComposite in2="hardAlpha" operator="out"/>
<feColorMatrix type="matrix" values="0 0 0 0 1 0 0 0 0 1 0 0 0 0 1 0 0 0 1 0"/>
<feBlend mode="normal" in2="BackgroundImageFix" result="effect1_dropShadow_200_34783"/>
<feColorMatrix in="SourceAlpha" type="matrix" values="0 0 0 0 0 0 0 0 0 0 0 0 0 0 0 0 0 0 127 0" result="hardAlpha"/>
<feMorphology radius="1" operator="dilate" in="SourceAlpha" result="effect2_dropShadow_200_34783"/>
<feOffset/>
<feComposite in2="hardAlpha" operator="out"/>
<feColorMatrix type="matrix" values="0 0 0 0 0.956863 0 0 0 0 0.956863 0 0 0 0 0.960784 0 0 0 0.1 0"/>
<feBlend mode="normal" in2="effect1_dropShadow_200_34783" result="effect2_dropShadow_200_34783"/>
<feBlend mode="normal" in="SourceGraphic" in2="effect2_dropShadow_200_34783" result="shape"/>
</filter>
<filter id="filter11_dd_200_34783" x="457" y="223" width="66" height="66" filterUnits="userSpaceOnUse" color-interpolation-filters="sRGB">
<feFlood flood-opacity="0" result="BackgroundImageFix"/>
<feColorMatrix in="SourceAlpha" type="matrix" values="0 0 0 0 0 0 0 0 0 0 0 0 0 0 0 0 0 0 127 0" result="hardAlpha"/>
<feOffset/>
<feComposite in2="hardAlpha" operator="out"/>
<feColorMatrix type="matrix" values="0 0 0 0 1 0 0 0 0 1 0 0 0 0 1 0 0 0 1 0"/>
<feBlend mode="normal" in2="BackgroundImageFix" result="effect1_dropShadow_200_34783"/>
<feColorMatrix in="SourceAlpha" type="matrix" values="0 0 0 0 0 0 0 0 0 0 0 0 0 0 0 0 0 0 127 0" result="hardAlpha"/>
<feMorphology radius="1" operator="dilate" in="SourceAlpha" result="effect2_dropShadow_200_34783"/>
<feOffset/>
<feComposite in2="hardAlpha" operator="out"/>
<feColorMatrix type="matrix" values="0 0 0 0 0.956863 0 0 0 0 0.956863 0 0 0 0 0.960784 0 0 0 0.1 0"/>
<feBlend mode="normal" in2="effect1_dropShadow_200_34783" result="effect2_dropShadow_200_34783"/>
<feBlend mode="normal" in="SourceGraphic" in2="effect2_dropShadow_200_34783" result="shape"/>
</filter>
<filter id="filter12_dd_200_34783" x="599" y="-1" width="66" height="66" filterUnits="userSpaceOnUse" color-interpolation-filters="sRGB">
<feFlood flood-opacity="0" result="BackgroundImageFix"/>
<feColorMatrix in="SourceAlpha" type="matrix" values="0 0 0 0 0 0 0 0 0 0 0 0 0 0 0 0 0 0 127 0" result="hardAlpha"/>
<feOffset/>
<feComposite in2="hardAlpha" operator="out"/>
<feColorMatrix type="matrix" values="0 0 0 0 1 0 0 0 0 1 0 0 0 0 1 0 0 0 1 0"/>
<feBlend mode="normal" in2="BackgroundImageFix" result="effect1_dropShadow_200_34783"/>
<feColorMatrix in="SourceAlpha" type="matrix" values="0 0 0 0 0 0 0 0 0 0 0 0 0 0 0 0 0 0 127 0" result="hardAlpha"/>
<feMorphology radius="1" operator="dilate" in="SourceAlpha" result="effect2_dropShadow_200_34783"/>
<feOffset/>
<feComposite in2="hardAlpha" operator="out"/>
<feColorMatrix type="matrix" values="0 0 0 0 0.956863 0 0 0 0 0.956863 0 0 0 0 0.960784 0 0 0 0.1 0"/>
<feBlend mode="normal" in2="effect1_dropShadow_200_34783" result="effect2_dropShadow_200_34783"/>
<feBlend mode="normal" in="SourceGraphic" in2="effect2_dropShadow_200_34783" result="shape"/>
</filter>
<filter id="filter13_dd_200_34783" x="599" y="95" width="66" height="66" filterUnits="userSpaceOnUse" color-interpolation-filters="sRGB">
<feFlood flood-opacity="0" result="BackgroundImageFix"/>
<feColorMatrix in="SourceAlpha" type="matrix" values="0 0 0 0 0 0 0 0 0 0 0 0 0 0 0 0 0 0 127 0" result="hardAlpha"/>
<feOffset/>
<feComposite in2="hardAlpha" operator="out"/>
<feColorMatrix type="matrix" values="0 0 0 0 1 0 0 0 0 1 0 0 0 0 1 0 0 0 1 0"/>
<feBlend mode="normal" in2="BackgroundImageFix" result="effect1_dropShadow_200_34783"/>
<feColorMatrix in="SourceAlpha" type="matrix" values="0 0 0 0 0 0 0 0 0 0 0 0 0 0 0 0 0 0 127 0" result="hardAlpha"/>
<feMorphology radius="1" operator="dilate" in="SourceAlpha" result="effect2_dropShadow_200_34783"/>
<feOffset/>
<feComposite in2="hardAlpha" operator="out"/>
<feColorMatrix type="matrix" values="0 0 0 0 0.956863 0 0 0 0 0.956863 0 0 0 0 0.960784 0 0 0 0.1 0"/>
<feBlend mode="normal" in2="effect1_dropShadow_200_34783" result="effect2_dropShadow_200_34783"/>
<feBlend mode="normal" in="SourceGraphic" in2="effect2_dropShadow_200_34783" result="shape"/>
</filter>
<filter id="filter14_dd_200_34783" x="599" y="191" width="66" height="66" filterUnits="userSpaceOnUse" color-interpolation-filters="sRGB">
<feFlood flood-opacity="0" result="BackgroundImageFix"/>
<feColorMatrix in="SourceAlpha" type="matrix" values="0 0 0 0 0 0 0 0 0 0 0 0 0 0 0 0 0 0 127 0" result="hardAlpha"/>
<feOffset/>
<feComposite in2="hardAlpha" operator="out"/>
<feColorMatrix type="matrix" values="0 0 0 0 1 0 0 0 0 1 0 0 0 0 1 0 0 0 1 0"/>
<feBlend mode="normal" in2="BackgroundImageFix" result="effect1_dropShadow_200_34783"/>
<feColorMatrix in="SourceAlpha" type="matrix" values="0 0 0 0 0 0 0 0 0 0 0 0 0 0 0 0 0 0 127 0" result="hardAlpha"/>
<feMorphology radius="1" operator="dilate" in="SourceAlpha" result="effect2_dropShadow_200_34783"/>
<feOffset/>
<feComposite in2="hardAlpha" operator="out"/>
<feColorMatrix type="matrix" values="0 0 0 0 0.956863 0 0 0 0 0.956863 0 0 0 0 0.960784 0 0 0 0.1 0"/>
<feBlend mode="normal" in2="effect1_dropShadow_200_34783" result="effect2_dropShadow_200_34783"/>
<feBlend mode="normal" in="SourceGraphic" in2="effect2_dropShadow_200_34783" result="shape"/>
</filter>
<radialGradient id="paint0_radial_200_34783" cx="0" cy="0" r="1" gradientUnits="userSpaceOnUse" gradientTransform="translate(348 144) rotate(22.4794) scale(376.617 266.117)">
<stop offset="0.35" stop-opacity="0.9"/>
<stop offset="1" stop-opacity="0"/>
</radialGradient>
<linearGradient id="paint1_linear_200_34783" x1="950" y1="95.61" x2="950" y2="2675.46" gradientUnits="userSpaceOnUse">
<stop offset="0.0056" stop-color="#FFE513"/>
<stop offset="1" stop-color="#FDB924"/>
</linearGradient>
<linearGradient id="paint2_linear_200_34783" x1="535.1" y1="420.23" x2="1916.98" y2="833.28" gradientUnits="userSpaceOnUse">
<stop offset="0.0056" stop-color="#008CD2"/>
<stop offset="1" stop-color="#00649D"/>
</linearGradient>
<linearGradient id="paint3_linear_200_34783" x1="1030" y1="940.96" x2="1030" y2="3172.96" gradientUnits="userSpaceOnUse">
<stop stop-color="#26A146"/>
<stop offset="1" stop-color="#008A52"/>
</linearGradient>
<linearGradient id="paint4_linear_200_34783" x1="907.3" y1="277.67" x2="1773.84" y2="2252.82" gradientUnits="userSpaceOnUse">
<stop stop-color="#D92231"/>
<stop offset="1" stop-color="#BA2234"/>
</linearGradient>
<clipPath id="clip0_200_34783">
<rect width="32" height="32" fill="white" transform="translate(48 16)"/>
</clipPath>
<clipPath id="clip1_200_34783">
<rect width="32" height="32" fill="white" transform="translate(48 208)"/>
</clipPath>
<clipPath id="clip2_200_34783">
<rect width="40" height="40" fill="white" transform="translate(186 44)"/>
</clipPath>
<clipPath id="clip3_200_34783">
<rect width="32" height="32" fill="white" transform="translate(190 240)"/>
</clipPath>
<clipPath id="clip4_200_34783">
<rect width="36" height="36" fill="white" transform="translate(330 14)"/>
</clipPath>
<clipPath id="clip5_200_34783">
<rect width="40" height="40" fill="white" transform="translate(328 108)"/>
</clipPath>
<clipPath id="clip6_200_34783">
<rect width="40" height="40" fill="white" transform="translate(470 44)"/>
</clipPath>
<clipPath id="clip7_200_34783">
<rect width="28" height="28" fill="white" transform="translate(476 146)"/>
</clipPath>
<clipPath id="clip8_200_34783">
<rect width="40" height="26" fill="white" transform="translate(612 19)"/>
</clipPath>
<clipPath id="clip9_200_34783">
<rect width="32" height="32" fill="white" transform="translate(616 112)"/>
</clipPath>
</defs>
</svg>
