<svg width="20" height="20" viewBox="0 0 20 20" fill="none" xmlns="http://www.w3.org/2000/svg">
<path fill-rule="evenodd" clip-rule="evenodd" d="M2.5 1.875C2.15483 1.875 1.875 2.15483 1.875 2.5V17.5C1.875 17.8452 2.15483 18.125 2.5 18.125H17.5C17.8452 18.125 18.125 17.8452 18.125 17.5V2.5C18.125 2.15483 17.8452 1.875 17.5 1.875H2.5ZM5.20833 7.5V14.1667H6.45833V7.5H5.20833ZM8.54167 7.5H9.79167V8.33311C10.3139 7.9408 10.9632 7.70833 11.6667 7.70833C13.3926 7.70833 14.7917 9.10742 14.7917 10.8333V14.1667H13.5417V10.8333C13.5417 9.79783 12.7022 8.95833 11.6667 8.95833C10.6312 8.95833 9.79167 9.79783 9.79167 10.8333V14.1667H8.54167V7.5ZM5.83984 6.66667C6.30008 6.66667 6.67317 6.29357 6.67317 5.83333C6.67317 5.3731 6.30008 5 5.83984 5H5.83236C5.37212 5 4.99902 5.37309 4.99902 5.83333C4.99902 6.29357 5.37212 6.66667 5.83236 6.66667H5.83984Z" fill="#A1A1AA"/>
</svg>
